G04 #@! TF.GenerationSoftware,KiCad,Pcbnew,(5.1.6)-1*
G04 #@! TF.CreationDate,2020-08-30T06:05:31-04:00*
G04 #@! TF.ProjectId,Twin-T_Code_Practice_Oscillator,5477696e-2d54-45f4-936f-64655f507261,A*
G04 #@! TF.SameCoordinates,Original*
G04 #@! TF.FileFunction,Copper,L2,Bot*
G04 #@! TF.FilePolarity,Positive*
%FSLAX46Y46*%
G04 Gerber Fmt 4.6, Leading zero omitted, Abs format (unit mm)*
G04 Created by KiCad (PCBNEW (5.1.6)-1) date 2020-08-30 06:05:31*
%MOMM*%
%LPD*%
G01*
G04 APERTURE LIST*
G04 #@! TA.AperFunction,ComponentPad*
%ADD10C,2.032000*%
G04 #@! TD*
G04 #@! TA.AperFunction,ComponentPad*
%ADD11R,2.032000X2.032000*%
G04 #@! TD*
G04 #@! TA.AperFunction,ComponentPad*
%ADD12R,1.625600X1.625600*%
G04 #@! TD*
G04 #@! TA.AperFunction,ComponentPad*
%ADD13C,1.625600*%
G04 #@! TD*
G04 #@! TA.AperFunction,ComponentPad*
%ADD14C,2.540000*%
G04 #@! TD*
G04 #@! TA.AperFunction,ComponentPad*
%ADD15C,2.286000*%
G04 #@! TD*
G04 #@! TA.AperFunction,Conductor*
%ADD16C,0.508000*%
G04 #@! TD*
G04 #@! TA.AperFunction,Conductor*
%ADD17C,1.270000*%
G04 #@! TD*
G04 #@! TA.AperFunction,Conductor*
%ADD18C,0.254000*%
G04 #@! TD*
G04 APERTURE END LIST*
D10*
X128270000Y-66675000D03*
X125730000Y-66675000D03*
D11*
X123190000Y-66675000D03*
D10*
X194310000Y-52705000D03*
X194310000Y-50165000D03*
D11*
X194310000Y-47625000D03*
D10*
X180340000Y-72390000D03*
X180340000Y-69850000D03*
D11*
X180340000Y-67310000D03*
D10*
X114935000Y-66675000D03*
D11*
X112395000Y-66675000D03*
D10*
X194310000Y-63500000D03*
D11*
X194310000Y-60960000D03*
X173990000Y-69850000D03*
D10*
X173990000Y-72390000D03*
D11*
X186690000Y-69850000D03*
D10*
X186690000Y-72390000D03*
D12*
X179705000Y-32385000D03*
D13*
X179705000Y-34925000D03*
X134620000Y-46990000D03*
X132080000Y-46990000D03*
D14*
X155575000Y-72390000D03*
D12*
X167005000Y-31750000D03*
D13*
X174625000Y-39370000D03*
X167005000Y-34290000D03*
X174625000Y-36830000D03*
X167005000Y-36830000D03*
X174625000Y-34290000D03*
X167005000Y-39370000D03*
X174625000Y-31750000D03*
D12*
X127000000Y-31750000D03*
D13*
X134620000Y-39370000D03*
X127000000Y-34290000D03*
X134620000Y-36830000D03*
X127000000Y-36830000D03*
X134620000Y-34290000D03*
X127000000Y-39370000D03*
X134620000Y-31750000D03*
X162560000Y-36830000D03*
X162560000Y-39370000D03*
D12*
X179705000Y-52705000D03*
D13*
X184785000Y-52705000D03*
D14*
X112395000Y-72390000D03*
X130175000Y-72390000D03*
X165100000Y-72390000D03*
X194310000Y-38735000D03*
X146050000Y-72390000D03*
X136525000Y-72390000D03*
D13*
X154305000Y-39370000D03*
D12*
X156845000Y-39370000D03*
D13*
X184785000Y-39370000D03*
X179705000Y-39370000D03*
X147320000Y-52070000D03*
X142240000Y-52070000D03*
X142240000Y-42545000D03*
X147320000Y-42545000D03*
X114935000Y-59690000D03*
X114935000Y-54610000D03*
X111125000Y-59690000D03*
X111125000Y-54610000D03*
X114935000Y-44450000D03*
X114935000Y-49530000D03*
X111125000Y-49530000D03*
X111125000Y-44450000D03*
X169545000Y-42545000D03*
X167005000Y-42545000D03*
X129540000Y-42545000D03*
X127000000Y-42545000D03*
D15*
X147637500Y-31750000D03*
X145097500Y-34290000D03*
X142557500Y-31750000D03*
D13*
X149860000Y-39370000D03*
X139700000Y-39370000D03*
X177165000Y-43815000D03*
X187325000Y-43815000D03*
X157480000Y-55880000D03*
X157480000Y-45720000D03*
X154305000Y-45720000D03*
X154305000Y-55880000D03*
X149860000Y-48895000D03*
X139700000Y-48895000D03*
X125730000Y-50165000D03*
X135890000Y-50165000D03*
X135890000Y-53340000D03*
X125730000Y-53340000D03*
X149860000Y-45720000D03*
X139700000Y-45720000D03*
X118110000Y-44450000D03*
X118110000Y-54610000D03*
X107950000Y-54610000D03*
X107950000Y-44450000D03*
X118110000Y-29845000D03*
X118110000Y-40005000D03*
X135890000Y-59690000D03*
D12*
X138430000Y-59690000D03*
D13*
X164465000Y-49530000D03*
D12*
X167005000Y-49530000D03*
X154305000Y-31750000D03*
D13*
X156845000Y-31750000D03*
X159385000Y-31750000D03*
X114300000Y-38735000D03*
X111760000Y-38735000D03*
D12*
X109220000Y-38735000D03*
D16*
X162560000Y-39370000D02*
X167005000Y-39370000D01*
D17*
X167005000Y-39370000D02*
X167005000Y-42545000D01*
D16*
X167005000Y-34290000D02*
X165100000Y-36195000D01*
X165100000Y-36195000D02*
X165100000Y-37465000D01*
X165100000Y-37465000D02*
X167005000Y-39370000D01*
D17*
X194310000Y-52705000D02*
X194310000Y-54610000D01*
X194310000Y-54610000D02*
X191770000Y-57150000D01*
X191770000Y-62396840D02*
X192873160Y-63500000D01*
X191770000Y-57150000D02*
X191770000Y-62396840D01*
X192873160Y-63500000D02*
X194310000Y-63500000D01*
D16*
X127000000Y-42545000D02*
X127000000Y-39370000D01*
X110490000Y-59690000D02*
X111125000Y-59690000D01*
X128270000Y-66675000D02*
X130175000Y-66675000D01*
X130175000Y-72390000D02*
X130175000Y-66675000D01*
D17*
X168275000Y-40640000D02*
X170180000Y-40640000D01*
X167005000Y-39370000D02*
X168275000Y-40640000D01*
X175895000Y-46355000D02*
X184785000Y-46355000D01*
X191135000Y-52705000D02*
X194310000Y-52705000D01*
X170180000Y-40640000D02*
X175895000Y-46355000D01*
X184785000Y-46355000D02*
X191135000Y-52705000D01*
D16*
X167005000Y-39370000D02*
X171450000Y-39370000D01*
X175895000Y-43815000D02*
X177165000Y-43815000D01*
X171450000Y-39370000D02*
X175895000Y-43815000D01*
X114935000Y-59690000D02*
X111125000Y-59690000D01*
X106045000Y-55880000D02*
X106045000Y-43815000D01*
X111125000Y-59690000D02*
X109855000Y-59690000D01*
X106045000Y-43815000D02*
X109220000Y-40640000D01*
X109855000Y-59690000D02*
X106045000Y-55880000D01*
X154305000Y-39370000D02*
X154305000Y-31750000D01*
X168275000Y-38100000D02*
X167005000Y-39370000D01*
X179705000Y-34925000D02*
X176530000Y-38100000D01*
X176530000Y-38100000D02*
X168275000Y-38100000D01*
D17*
X164465000Y-49530000D02*
X164465000Y-45085000D01*
X167005000Y-42545000D02*
X164465000Y-45085000D01*
D16*
X135890000Y-59690000D02*
X133350000Y-57150000D01*
X130175000Y-65405000D02*
X130175000Y-66675000D01*
X135890000Y-59690000D02*
X130175000Y-65405000D01*
X180340000Y-72390000D02*
X180340000Y-74295000D01*
X180340000Y-74295000D02*
X179705000Y-74930000D01*
X179705000Y-74930000D02*
X162560000Y-74930000D01*
X162560000Y-74930000D02*
X160655000Y-73025000D01*
X160655000Y-73025000D02*
X160655000Y-69850000D01*
X160655000Y-69850000D02*
X158750000Y-67945000D01*
X158750000Y-67945000D02*
X140970000Y-67945000D01*
X140970000Y-67945000D02*
X135890000Y-62865000D01*
X135890000Y-62865000D02*
X135890000Y-59690000D01*
X114935000Y-66675000D02*
X114935000Y-59690000D01*
X114935000Y-59690000D02*
X135890000Y-59690000D01*
X152400000Y-29845000D02*
X154305000Y-31750000D01*
X130175000Y-33655000D02*
X133985000Y-29845000D01*
X127000000Y-39370000D02*
X130175000Y-36195000D01*
X133985000Y-29845000D02*
X152400000Y-29845000D01*
X130175000Y-36195000D02*
X130175000Y-33655000D01*
X109220000Y-38735000D02*
X109220000Y-40640000D01*
X127000000Y-42545000D02*
X125730000Y-43815000D01*
X125730000Y-43815000D02*
X125730000Y-50165000D01*
X125730000Y-50165000D02*
X123825000Y-52070000D01*
X123825000Y-52070000D02*
X123825000Y-54610000D01*
X123825000Y-54610000D02*
X126365000Y-57150000D01*
X126365000Y-57150000D02*
X133350000Y-57150000D01*
X170180000Y-67310000D02*
X180340000Y-67310000D01*
X165100000Y-72390000D02*
X170180000Y-67310000D01*
X178435000Y-65405000D02*
X180340000Y-67310000D01*
X144145000Y-65405000D02*
X178435000Y-65405000D01*
X138430000Y-59690000D02*
X144145000Y-65405000D01*
X154305000Y-55880000D02*
X142240000Y-55880000D01*
X142240000Y-55880000D02*
X138430000Y-59690000D01*
X132080000Y-34290000D02*
X134620000Y-31750000D01*
X129540000Y-42545000D02*
X132080000Y-40005000D01*
X132080000Y-40005000D02*
X132080000Y-34290000D01*
X132080000Y-53340000D02*
X132715000Y-53975000D01*
X138430000Y-59690000D02*
X132715000Y-53975000D01*
X129540000Y-42545000D02*
X129540000Y-53340000D01*
X125730000Y-53340000D02*
X129540000Y-53340000D01*
X129540000Y-53340000D02*
X132080000Y-53340000D01*
D18*
X107950000Y-44450000D02*
X111125000Y-44450000D01*
X111760000Y-38735000D02*
X111760000Y-41275000D01*
X111760000Y-41275000D02*
X111125000Y-41910000D01*
X111125000Y-41910000D02*
X111125000Y-44450000D01*
X111205000Y-49450000D02*
X111125000Y-49530000D01*
X111125000Y-49530000D02*
X114935000Y-49530000D01*
X118110000Y-44450000D02*
X114935000Y-44450000D01*
X114300000Y-38735000D02*
X114300000Y-41275000D01*
X114935000Y-41910000D02*
X114935000Y-44450000D01*
X114300000Y-41275000D02*
X114935000Y-41910000D01*
X114300000Y-38735000D02*
X116840000Y-38735000D01*
X116840000Y-38735000D02*
X118110000Y-40005000D01*
X118110000Y-54610000D02*
X114935000Y-54610000D01*
X114935000Y-54610000D02*
X107950000Y-54610000D01*
X118110000Y-54610000D02*
X118110000Y-52070000D01*
X118110000Y-52070000D02*
X121285000Y-48895000D01*
X121285000Y-48895000D02*
X121285000Y-42545000D01*
X121285000Y-42545000D02*
X127000000Y-36830000D01*
X147320000Y-42545000D02*
X149860000Y-45085000D01*
X149860000Y-45085000D02*
X149860000Y-45720000D01*
X139700000Y-39370000D02*
X142240000Y-41910000D01*
X142240000Y-41910000D02*
X142240000Y-42545000D01*
X134620000Y-39370000D02*
X134620000Y-46990000D01*
X134620000Y-46990000D02*
X134620000Y-48895000D01*
X134620000Y-48895000D02*
X135890000Y-50165000D01*
X135890000Y-50165000D02*
X135890000Y-53340000D01*
D16*
X177800000Y-34290000D02*
X174625000Y-34290000D01*
X179705000Y-32385000D02*
X177800000Y-34290000D01*
D18*
X137160000Y-46355000D02*
X139700000Y-48895000D01*
X134620000Y-34290000D02*
X137160000Y-36830000D01*
X137160000Y-36830000D02*
X137160000Y-46355000D01*
D17*
X194310000Y-57150000D02*
X194310000Y-60960000D01*
X195897500Y-50165000D02*
X196850000Y-51117500D01*
X196850000Y-51117500D02*
X196850000Y-54610000D01*
X194310000Y-50165000D02*
X195897500Y-50165000D01*
X196850000Y-54610000D02*
X194310000Y-57150000D01*
D18*
X127000000Y-34290000D02*
X127000000Y-31750000D01*
X142557500Y-35242500D02*
X142557500Y-31750000D01*
X149860000Y-39370000D02*
X146685000Y-39370000D01*
X146685000Y-39370000D02*
X142557500Y-35242500D01*
D16*
X174625000Y-39370000D02*
X179705000Y-39370000D01*
D18*
X159385000Y-31750000D02*
X159385000Y-36830000D01*
X159385000Y-46355000D02*
X159385000Y-36910000D01*
X153670000Y-52070000D02*
X159385000Y-46355000D01*
X147320000Y-52070000D02*
X153670000Y-52070000D01*
X162560000Y-36830000D02*
X159385000Y-36830000D01*
X149860000Y-48895000D02*
X145415000Y-48895000D01*
X145415000Y-48895000D02*
X142240000Y-52070000D01*
X157480000Y-45720000D02*
X154305000Y-45720000D01*
X157480000Y-45720000D02*
X157480000Y-42545000D01*
X156845000Y-31750000D02*
X156845000Y-39370000D01*
X156845000Y-41910000D02*
X157480000Y-42545000D01*
X156845000Y-39370000D02*
X156845000Y-41910000D01*
D16*
X186690000Y-39370000D02*
X187325000Y-40005000D01*
X187325000Y-40005000D02*
X187325000Y-43815000D01*
X184785000Y-39370000D02*
X186690000Y-39370000D01*
D18*
X194310000Y-47625000D02*
X194310000Y-38735000D01*
M02*
