G04 #@! TF.GenerationSoftware,KiCad,Pcbnew,(5.1.6)-1*
G04 #@! TF.CreationDate,2020-09-01T21:18:44-04:00*
G04 #@! TF.ProjectId,Twin-T_Code_Practice_Oscillator,5477696e-2d54-45f4-936f-64655f507261,A*
G04 #@! TF.SameCoordinates,Original*
G04 #@! TF.FileFunction,Legend,Top*
G04 #@! TF.FilePolarity,Positive*
%FSLAX46Y46*%
G04 Gerber Fmt 4.6, Leading zero omitted, Abs format (unit mm)*
G04 Created by KiCad (PCBNEW (5.1.6)-1) date 2020-09-01 21:18:44*
%MOMM*%
%LPD*%
G01*
G04 APERTURE LIST*
%ADD10C,0.152400*%
%ADD11C,0.203200*%
%ADD12C,0.127000*%
%ADD13C,0.381000*%
%ADD14C,0.685800*%
%ADD15C,0.150000*%
G04 APERTURE END LIST*
D10*
X143328571Y-38311666D02*
X143280190Y-38263285D01*
X143183428Y-38118142D01*
X143135047Y-38021380D01*
X143086666Y-37876238D01*
X143038285Y-37634333D01*
X143038285Y-37440809D01*
X143086666Y-37198904D01*
X143135047Y-37053761D01*
X143183428Y-36957000D01*
X143280190Y-36811857D01*
X143328571Y-36763476D01*
X143667238Y-37876238D02*
X143812380Y-37924619D01*
X144054285Y-37924619D01*
X144151047Y-37876238D01*
X144199428Y-37827857D01*
X144247809Y-37731095D01*
X144247809Y-37634333D01*
X144199428Y-37537571D01*
X144151047Y-37489190D01*
X144054285Y-37440809D01*
X143860761Y-37392428D01*
X143764000Y-37344047D01*
X143715619Y-37295666D01*
X143667238Y-37198904D01*
X143667238Y-37102142D01*
X143715619Y-37005380D01*
X143764000Y-36957000D01*
X143860761Y-36908619D01*
X144102666Y-36908619D01*
X144247809Y-36957000D01*
X144634857Y-37634333D02*
X145118666Y-37634333D01*
X144538095Y-37924619D02*
X144876761Y-36908619D01*
X145215428Y-37924619D01*
X145408952Y-36908619D02*
X145989523Y-36908619D01*
X145699238Y-37924619D02*
X145699238Y-36908619D01*
X146231428Y-38311666D02*
X146279809Y-38263285D01*
X146376571Y-38118142D01*
X146424952Y-38021380D01*
X146473333Y-37876238D01*
X146521714Y-37634333D01*
X146521714Y-37440809D01*
X146473333Y-37198904D01*
X146424952Y-37053761D01*
X146376571Y-36957000D01*
X146279809Y-36811857D01*
X146231428Y-36763476D01*
X152454428Y-67669228D02*
X152793095Y-67669228D01*
X152938238Y-68201419D02*
X152454428Y-68201419D01*
X152454428Y-67185419D01*
X152938238Y-67185419D01*
X153373666Y-67524085D02*
X153373666Y-68201419D01*
X153373666Y-67620847D02*
X153422047Y-67572466D01*
X153518809Y-67524085D01*
X153663952Y-67524085D01*
X153760714Y-67572466D01*
X153809095Y-67669228D01*
X153809095Y-68201419D01*
X154196142Y-67524085D02*
X154438047Y-68201419D01*
X154679952Y-67524085D01*
X155454047Y-68153038D02*
X155357285Y-68201419D01*
X155163761Y-68201419D01*
X155067000Y-68153038D01*
X155018619Y-68056276D01*
X155018619Y-67669228D01*
X155067000Y-67572466D01*
X155163761Y-67524085D01*
X155357285Y-67524085D01*
X155454047Y-67572466D01*
X155502428Y-67669228D01*
X155502428Y-67765990D01*
X155018619Y-67862752D01*
X156083000Y-68201419D02*
X155986238Y-68153038D01*
X155937857Y-68056276D01*
X155937857Y-67185419D01*
X156615190Y-68201419D02*
X156518428Y-68153038D01*
X156470047Y-68104657D01*
X156421666Y-68007895D01*
X156421666Y-67717609D01*
X156470047Y-67620847D01*
X156518428Y-67572466D01*
X156615190Y-67524085D01*
X156760333Y-67524085D01*
X156857095Y-67572466D01*
X156905476Y-67620847D01*
X156953857Y-67717609D01*
X156953857Y-68007895D01*
X156905476Y-68104657D01*
X156857095Y-68153038D01*
X156760333Y-68201419D01*
X156615190Y-68201419D01*
X157389285Y-67524085D02*
X157389285Y-68540085D01*
X157389285Y-67572466D02*
X157486047Y-67524085D01*
X157679571Y-67524085D01*
X157776333Y-67572466D01*
X157824714Y-67620847D01*
X157873095Y-67717609D01*
X157873095Y-68007895D01*
X157824714Y-68104657D01*
X157776333Y-68153038D01*
X157679571Y-68201419D01*
X157486047Y-68201419D01*
X157389285Y-68153038D01*
X158695571Y-68153038D02*
X158598809Y-68201419D01*
X158405285Y-68201419D01*
X158308523Y-68153038D01*
X158260142Y-68056276D01*
X158260142Y-67669228D01*
X158308523Y-67572466D01*
X158405285Y-67524085D01*
X158598809Y-67524085D01*
X158695571Y-67572466D01*
X158743952Y-67669228D01*
X158743952Y-67765990D01*
X158260142Y-67862752D01*
X154655761Y-68910200D02*
X154559000Y-68861819D01*
X154413857Y-68861819D01*
X154268714Y-68910200D01*
X154171952Y-69006961D01*
X154123571Y-69103723D01*
X154075190Y-69297247D01*
X154075190Y-69442390D01*
X154123571Y-69635914D01*
X154171952Y-69732676D01*
X154268714Y-69829438D01*
X154413857Y-69877819D01*
X154510619Y-69877819D01*
X154655761Y-69829438D01*
X154704142Y-69781057D01*
X154704142Y-69442390D01*
X154510619Y-69442390D01*
X155575000Y-69877819D02*
X155575000Y-69345628D01*
X155526619Y-69248866D01*
X155429857Y-69200485D01*
X155236333Y-69200485D01*
X155139571Y-69248866D01*
X155575000Y-69829438D02*
X155478238Y-69877819D01*
X155236333Y-69877819D01*
X155139571Y-69829438D01*
X155091190Y-69732676D01*
X155091190Y-69635914D01*
X155139571Y-69539152D01*
X155236333Y-69490771D01*
X155478238Y-69490771D01*
X155575000Y-69442390D01*
X155913666Y-69200485D02*
X156300714Y-69200485D01*
X156058809Y-68861819D02*
X156058809Y-69732676D01*
X156107190Y-69829438D01*
X156203952Y-69877819D01*
X156300714Y-69877819D01*
X157026428Y-69829438D02*
X156929666Y-69877819D01*
X156736142Y-69877819D01*
X156639380Y-69829438D01*
X156591000Y-69732676D01*
X156591000Y-69345628D01*
X156639380Y-69248866D01*
X156736142Y-69200485D01*
X156929666Y-69200485D01*
X157026428Y-69248866D01*
X157074809Y-69345628D01*
X157074809Y-69442390D01*
X156591000Y-69539152D01*
X115703047Y-70866000D02*
X115606285Y-70817619D01*
X115461142Y-70817619D01*
X115316000Y-70866000D01*
X115219238Y-70962761D01*
X115170857Y-71059523D01*
X115122476Y-71253047D01*
X115122476Y-71398190D01*
X115170857Y-71591714D01*
X115219238Y-71688476D01*
X115316000Y-71785238D01*
X115461142Y-71833619D01*
X115557904Y-71833619D01*
X115703047Y-71785238D01*
X115751428Y-71736857D01*
X115751428Y-71398190D01*
X115557904Y-71398190D01*
X116186857Y-71833619D02*
X116186857Y-70817619D01*
X116767428Y-71833619D01*
X116767428Y-70817619D01*
X117251238Y-71833619D02*
X117251238Y-70817619D01*
X117493142Y-70817619D01*
X117638285Y-70866000D01*
X117735047Y-70962761D01*
X117783428Y-71059523D01*
X117831809Y-71253047D01*
X117831809Y-71398190D01*
X117783428Y-71591714D01*
X117735047Y-71688476D01*
X117638285Y-71785238D01*
X117493142Y-71833619D01*
X117251238Y-71833619D01*
X119331619Y-72220666D02*
X119283238Y-72172285D01*
X119186476Y-72027142D01*
X119138095Y-71930380D01*
X119089714Y-71785238D01*
X119041333Y-71543333D01*
X119041333Y-71349809D01*
X119089714Y-71107904D01*
X119138095Y-70962761D01*
X119186476Y-70866000D01*
X119283238Y-70720857D01*
X119331619Y-70672476D01*
X119718666Y-71833619D02*
X119718666Y-70817619D01*
X119960571Y-70817619D01*
X120105714Y-70866000D01*
X120202476Y-70962761D01*
X120250857Y-71059523D01*
X120299238Y-71253047D01*
X120299238Y-71398190D01*
X120250857Y-71591714D01*
X120202476Y-71688476D01*
X120105714Y-71785238D01*
X119960571Y-71833619D01*
X119718666Y-71833619D01*
X121315238Y-71736857D02*
X121266857Y-71785238D01*
X121121714Y-71833619D01*
X121024952Y-71833619D01*
X120879809Y-71785238D01*
X120783047Y-71688476D01*
X120734666Y-71591714D01*
X120686285Y-71398190D01*
X120686285Y-71253047D01*
X120734666Y-71059523D01*
X120783047Y-70962761D01*
X120879809Y-70866000D01*
X121024952Y-70817619D01*
X121121714Y-70817619D01*
X121266857Y-70866000D01*
X121315238Y-70914380D01*
X123105333Y-71833619D02*
X122766666Y-71349809D01*
X122524761Y-71833619D02*
X122524761Y-70817619D01*
X122911809Y-70817619D01*
X123008571Y-70866000D01*
X123056952Y-70914380D01*
X123105333Y-71011142D01*
X123105333Y-71156285D01*
X123056952Y-71253047D01*
X123008571Y-71301428D01*
X122911809Y-71349809D01*
X122524761Y-71349809D01*
X123927809Y-71785238D02*
X123831047Y-71833619D01*
X123637523Y-71833619D01*
X123540761Y-71785238D01*
X123492380Y-71688476D01*
X123492380Y-71301428D01*
X123540761Y-71204666D01*
X123637523Y-71156285D01*
X123831047Y-71156285D01*
X123927809Y-71204666D01*
X123976190Y-71301428D01*
X123976190Y-71398190D01*
X123492380Y-71494952D01*
X124266476Y-71156285D02*
X124653523Y-71156285D01*
X124411619Y-70817619D02*
X124411619Y-71688476D01*
X124460000Y-71785238D01*
X124556761Y-71833619D01*
X124653523Y-71833619D01*
X125427619Y-71156285D02*
X125427619Y-71833619D01*
X124992190Y-71156285D02*
X124992190Y-71688476D01*
X125040571Y-71785238D01*
X125137333Y-71833619D01*
X125282476Y-71833619D01*
X125379238Y-71785238D01*
X125427619Y-71736857D01*
X125911428Y-71833619D02*
X125911428Y-71156285D01*
X125911428Y-71349809D02*
X125959809Y-71253047D01*
X126008190Y-71204666D01*
X126104952Y-71156285D01*
X126201714Y-71156285D01*
X126540380Y-71156285D02*
X126540380Y-71833619D01*
X126540380Y-71253047D02*
X126588761Y-71204666D01*
X126685523Y-71156285D01*
X126830666Y-71156285D01*
X126927428Y-71204666D01*
X126975809Y-71301428D01*
X126975809Y-71833619D01*
X127362857Y-72220666D02*
X127411238Y-72172285D01*
X127508000Y-72027142D01*
X127556380Y-71930380D01*
X127604761Y-71785238D01*
X127653142Y-71543333D01*
X127653142Y-71349809D01*
X127604761Y-71107904D01*
X127556380Y-70962761D01*
X127508000Y-70866000D01*
X127411238Y-70720857D01*
X127362857Y-70672476D01*
X162142714Y-69414571D02*
X162916809Y-69414571D01*
X162529761Y-69801619D02*
X162529761Y-69027523D01*
X163449000Y-69801619D02*
X163642523Y-69801619D01*
X163739285Y-69753238D01*
X163787666Y-69704857D01*
X163884428Y-69559714D01*
X163932809Y-69366190D01*
X163932809Y-68979142D01*
X163884428Y-68882380D01*
X163836047Y-68834000D01*
X163739285Y-68785619D01*
X163545761Y-68785619D01*
X163449000Y-68834000D01*
X163400619Y-68882380D01*
X163352238Y-68979142D01*
X163352238Y-69221047D01*
X163400619Y-69317809D01*
X163449000Y-69366190D01*
X163545761Y-69414571D01*
X163739285Y-69414571D01*
X163836047Y-69366190D01*
X163884428Y-69317809D01*
X163932809Y-69221047D01*
X164223095Y-68785619D02*
X164561761Y-69801619D01*
X164900428Y-68785619D01*
X165239095Y-69801619D02*
X165239095Y-68785619D01*
X165481000Y-68785619D01*
X165626142Y-68834000D01*
X165722904Y-68930761D01*
X165771285Y-69027523D01*
X165819666Y-69221047D01*
X165819666Y-69366190D01*
X165771285Y-69559714D01*
X165722904Y-69656476D01*
X165626142Y-69753238D01*
X165481000Y-69801619D01*
X165239095Y-69801619D01*
X166835666Y-69704857D02*
X166787285Y-69753238D01*
X166642142Y-69801619D01*
X166545380Y-69801619D01*
X166400238Y-69753238D01*
X166303476Y-69656476D01*
X166255095Y-69559714D01*
X166206714Y-69366190D01*
X166206714Y-69221047D01*
X166255095Y-69027523D01*
X166303476Y-68930761D01*
X166400238Y-68834000D01*
X166545380Y-68785619D01*
X166642142Y-68785619D01*
X166787285Y-68834000D01*
X166835666Y-68882380D01*
X190375419Y-40452523D02*
X190375419Y-40936333D01*
X189359419Y-40936333D01*
X190375419Y-40113857D02*
X189359419Y-40113857D01*
X190085133Y-39775190D01*
X189359419Y-39436523D01*
X190375419Y-39436523D01*
X189359419Y-39049476D02*
X189359419Y-38420523D01*
X189746466Y-38759190D01*
X189746466Y-38614047D01*
X189794847Y-38517285D01*
X189843228Y-38468904D01*
X189939990Y-38420523D01*
X190181895Y-38420523D01*
X190278657Y-38468904D01*
X190327038Y-38517285D01*
X190375419Y-38614047D01*
X190375419Y-38904333D01*
X190327038Y-39001095D01*
X190278657Y-39049476D01*
X189794847Y-37839952D02*
X189746466Y-37936714D01*
X189698085Y-37985095D01*
X189601323Y-38033476D01*
X189552942Y-38033476D01*
X189456180Y-37985095D01*
X189407800Y-37936714D01*
X189359419Y-37839952D01*
X189359419Y-37646428D01*
X189407800Y-37549666D01*
X189456180Y-37501285D01*
X189552942Y-37452904D01*
X189601323Y-37452904D01*
X189698085Y-37501285D01*
X189746466Y-37549666D01*
X189794847Y-37646428D01*
X189794847Y-37839952D01*
X189843228Y-37936714D01*
X189891609Y-37985095D01*
X189988371Y-38033476D01*
X190181895Y-38033476D01*
X190278657Y-37985095D01*
X190327038Y-37936714D01*
X190375419Y-37839952D01*
X190375419Y-37646428D01*
X190327038Y-37549666D01*
X190278657Y-37501285D01*
X190181895Y-37452904D01*
X189988371Y-37452904D01*
X189891609Y-37501285D01*
X189843228Y-37549666D01*
X189794847Y-37646428D01*
X189359419Y-36582047D02*
X189359419Y-36775571D01*
X189407800Y-36872333D01*
X189456180Y-36920714D01*
X189601323Y-37017476D01*
X189794847Y-37065857D01*
X190181895Y-37065857D01*
X190278657Y-37017476D01*
X190327038Y-36969095D01*
X190375419Y-36872333D01*
X190375419Y-36678809D01*
X190327038Y-36582047D01*
X190278657Y-36533666D01*
X190181895Y-36485285D01*
X189939990Y-36485285D01*
X189843228Y-36533666D01*
X189794847Y-36582047D01*
X189746466Y-36678809D01*
X189746466Y-36872333D01*
X189794847Y-36969095D01*
X189843228Y-37017476D01*
X189939990Y-37065857D01*
X191035819Y-40791190D02*
X191035819Y-40597666D01*
X191084200Y-40500904D01*
X191180961Y-40404142D01*
X191374485Y-40355761D01*
X191713152Y-40355761D01*
X191906676Y-40404142D01*
X192003438Y-40500904D01*
X192051819Y-40597666D01*
X192051819Y-40791190D01*
X192003438Y-40887952D01*
X191906676Y-40984714D01*
X191713152Y-41033095D01*
X191374485Y-41033095D01*
X191180961Y-40984714D01*
X191084200Y-40887952D01*
X191035819Y-40791190D01*
X191374485Y-39484904D02*
X192051819Y-39484904D01*
X191374485Y-39920333D02*
X191906676Y-39920333D01*
X192003438Y-39871952D01*
X192051819Y-39775190D01*
X192051819Y-39630047D01*
X192003438Y-39533285D01*
X191955057Y-39484904D01*
X191374485Y-39146238D02*
X191374485Y-38759190D01*
X191035819Y-39001095D02*
X191906676Y-39001095D01*
X192003438Y-38952714D01*
X192051819Y-38855952D01*
X192051819Y-38759190D01*
X191374485Y-38420523D02*
X192390485Y-38420523D01*
X191422866Y-38420523D02*
X191374485Y-38323761D01*
X191374485Y-38130238D01*
X191422866Y-38033476D01*
X191471247Y-37985095D01*
X191568009Y-37936714D01*
X191858295Y-37936714D01*
X191955057Y-37985095D01*
X192003438Y-38033476D01*
X192051819Y-38130238D01*
X192051819Y-38323761D01*
X192003438Y-38420523D01*
X191374485Y-37065857D02*
X192051819Y-37065857D01*
X191374485Y-37501285D02*
X191906676Y-37501285D01*
X192003438Y-37452904D01*
X192051819Y-37356142D01*
X192051819Y-37211000D01*
X192003438Y-37114238D01*
X191955057Y-37065857D01*
X191374485Y-36727190D02*
X191374485Y-36340142D01*
X191035819Y-36582047D02*
X191906676Y-36582047D01*
X192003438Y-36533666D01*
X192051819Y-36436904D01*
X192051819Y-36340142D01*
X144332476Y-68201419D02*
X143848666Y-68201419D01*
X143848666Y-67185419D01*
X144671142Y-68201419D02*
X144671142Y-67185419D01*
X145009809Y-67911133D01*
X145348476Y-67185419D01*
X145348476Y-68201419D01*
X145735523Y-67185419D02*
X146364476Y-67185419D01*
X146025809Y-67572466D01*
X146170952Y-67572466D01*
X146267714Y-67620847D01*
X146316095Y-67669228D01*
X146364476Y-67765990D01*
X146364476Y-68007895D01*
X146316095Y-68104657D01*
X146267714Y-68153038D01*
X146170952Y-68201419D01*
X145880666Y-68201419D01*
X145783904Y-68153038D01*
X145735523Y-68104657D01*
X146945047Y-67620847D02*
X146848285Y-67572466D01*
X146799904Y-67524085D01*
X146751523Y-67427323D01*
X146751523Y-67378942D01*
X146799904Y-67282180D01*
X146848285Y-67233800D01*
X146945047Y-67185419D01*
X147138571Y-67185419D01*
X147235333Y-67233800D01*
X147283714Y-67282180D01*
X147332095Y-67378942D01*
X147332095Y-67427323D01*
X147283714Y-67524085D01*
X147235333Y-67572466D01*
X147138571Y-67620847D01*
X146945047Y-67620847D01*
X146848285Y-67669228D01*
X146799904Y-67717609D01*
X146751523Y-67814371D01*
X146751523Y-68007895D01*
X146799904Y-68104657D01*
X146848285Y-68153038D01*
X146945047Y-68201419D01*
X147138571Y-68201419D01*
X147235333Y-68153038D01*
X147283714Y-68104657D01*
X147332095Y-68007895D01*
X147332095Y-67814371D01*
X147283714Y-67717609D01*
X147235333Y-67669228D01*
X147138571Y-67620847D01*
X148202952Y-67185419D02*
X148009428Y-67185419D01*
X147912666Y-67233800D01*
X147864285Y-67282180D01*
X147767523Y-67427323D01*
X147719142Y-67620847D01*
X147719142Y-68007895D01*
X147767523Y-68104657D01*
X147815904Y-68153038D01*
X147912666Y-68201419D01*
X148106190Y-68201419D01*
X148202952Y-68153038D01*
X148251333Y-68104657D01*
X148299714Y-68007895D01*
X148299714Y-67765990D01*
X148251333Y-67669228D01*
X148202952Y-67620847D01*
X148106190Y-67572466D01*
X147912666Y-67572466D01*
X147815904Y-67620847D01*
X147767523Y-67669228D01*
X147719142Y-67765990D01*
X144380857Y-69877819D02*
X144380857Y-68861819D01*
X144864666Y-69200485D02*
X144864666Y-69877819D01*
X144864666Y-69297247D02*
X144913047Y-69248866D01*
X145009809Y-69200485D01*
X145154952Y-69200485D01*
X145251714Y-69248866D01*
X145300095Y-69345628D01*
X145300095Y-69877819D01*
X145783904Y-69200485D02*
X145783904Y-70216485D01*
X145783904Y-69248866D02*
X145880666Y-69200485D01*
X146074190Y-69200485D01*
X146170952Y-69248866D01*
X146219333Y-69297247D01*
X146267714Y-69394009D01*
X146267714Y-69684295D01*
X146219333Y-69781057D01*
X146170952Y-69829438D01*
X146074190Y-69877819D01*
X145880666Y-69877819D01*
X145783904Y-69829438D01*
X147138571Y-69200485D02*
X147138571Y-69877819D01*
X146703142Y-69200485D02*
X146703142Y-69732676D01*
X146751523Y-69829438D01*
X146848285Y-69877819D01*
X146993428Y-69877819D01*
X147090190Y-69829438D01*
X147138571Y-69781057D01*
X147477238Y-69200485D02*
X147864285Y-69200485D01*
X147622380Y-68861819D02*
X147622380Y-69732676D01*
X147670761Y-69829438D01*
X147767523Y-69877819D01*
X147864285Y-69877819D01*
X133912428Y-67669228D02*
X134057571Y-67717609D01*
X134105952Y-67765990D01*
X134154333Y-67862752D01*
X134154333Y-68007895D01*
X134105952Y-68104657D01*
X134057571Y-68153038D01*
X133960809Y-68201419D01*
X133573761Y-68201419D01*
X133573761Y-67185419D01*
X133912428Y-67185419D01*
X134009190Y-67233800D01*
X134057571Y-67282180D01*
X134105952Y-67378942D01*
X134105952Y-67475704D01*
X134057571Y-67572466D01*
X134009190Y-67620847D01*
X133912428Y-67669228D01*
X133573761Y-67669228D01*
X135025190Y-67524085D02*
X135025190Y-68201419D01*
X134589761Y-67524085D02*
X134589761Y-68056276D01*
X134638142Y-68153038D01*
X134734904Y-68201419D01*
X134880047Y-68201419D01*
X134976809Y-68153038D01*
X135025190Y-68104657D01*
X135363857Y-67524085D02*
X135750904Y-67524085D01*
X135509000Y-68201419D02*
X135509000Y-67330561D01*
X135557380Y-67233800D01*
X135654142Y-67185419D01*
X135750904Y-67185419D01*
X135944428Y-67524085D02*
X136331476Y-67524085D01*
X136089571Y-68201419D02*
X136089571Y-67330561D01*
X136137952Y-67233800D01*
X136234714Y-67185419D01*
X136331476Y-67185419D01*
X137057190Y-68153038D02*
X136960428Y-68201419D01*
X136766904Y-68201419D01*
X136670142Y-68153038D01*
X136621761Y-68056276D01*
X136621761Y-67669228D01*
X136670142Y-67572466D01*
X136766904Y-67524085D01*
X136960428Y-67524085D01*
X137057190Y-67572466D01*
X137105571Y-67669228D01*
X137105571Y-67765990D01*
X136621761Y-67862752D01*
X137541000Y-68201419D02*
X137541000Y-67524085D01*
X137541000Y-67717609D02*
X137589380Y-67620847D01*
X137637761Y-67572466D01*
X137734523Y-67524085D01*
X137831285Y-67524085D01*
X138557000Y-68153038D02*
X138460238Y-68201419D01*
X138266714Y-68201419D01*
X138169952Y-68153038D01*
X138121571Y-68056276D01*
X138121571Y-67669228D01*
X138169952Y-67572466D01*
X138266714Y-67524085D01*
X138460238Y-67524085D01*
X138557000Y-67572466D01*
X138605380Y-67669228D01*
X138605380Y-67765990D01*
X138121571Y-67862752D01*
X139476238Y-68201419D02*
X139476238Y-67185419D01*
X139476238Y-68153038D02*
X139379476Y-68201419D01*
X139185952Y-68201419D01*
X139089190Y-68153038D01*
X139040809Y-68104657D01*
X138992428Y-68007895D01*
X138992428Y-67717609D01*
X139040809Y-67620847D01*
X139089190Y-67572466D01*
X139185952Y-67524085D01*
X139379476Y-67524085D01*
X139476238Y-67572466D01*
X133670523Y-68861819D02*
X133864047Y-68861819D01*
X133960809Y-68910200D01*
X134057571Y-69006961D01*
X134105952Y-69200485D01*
X134105952Y-69539152D01*
X134057571Y-69732676D01*
X133960809Y-69829438D01*
X133864047Y-69877819D01*
X133670523Y-69877819D01*
X133573761Y-69829438D01*
X133477000Y-69732676D01*
X133428619Y-69539152D01*
X133428619Y-69200485D01*
X133477000Y-69006961D01*
X133573761Y-68910200D01*
X133670523Y-68861819D01*
X134493000Y-69829438D02*
X134589761Y-69877819D01*
X134783285Y-69877819D01*
X134880047Y-69829438D01*
X134928428Y-69732676D01*
X134928428Y-69684295D01*
X134880047Y-69587533D01*
X134783285Y-69539152D01*
X134638142Y-69539152D01*
X134541380Y-69490771D01*
X134493000Y-69394009D01*
X134493000Y-69345628D01*
X134541380Y-69248866D01*
X134638142Y-69200485D01*
X134783285Y-69200485D01*
X134880047Y-69248866D01*
X135799285Y-69829438D02*
X135702523Y-69877819D01*
X135509000Y-69877819D01*
X135412238Y-69829438D01*
X135363857Y-69781057D01*
X135315476Y-69684295D01*
X135315476Y-69394009D01*
X135363857Y-69297247D01*
X135412238Y-69248866D01*
X135509000Y-69200485D01*
X135702523Y-69200485D01*
X135799285Y-69248866D01*
X136234714Y-69781057D02*
X136283095Y-69829438D01*
X136234714Y-69877819D01*
X136186333Y-69829438D01*
X136234714Y-69781057D01*
X136234714Y-69877819D01*
X137686142Y-68861819D02*
X137879666Y-68861819D01*
X137976428Y-68910200D01*
X138073190Y-69006961D01*
X138121571Y-69200485D01*
X138121571Y-69539152D01*
X138073190Y-69732676D01*
X137976428Y-69829438D01*
X137879666Y-69877819D01*
X137686142Y-69877819D01*
X137589380Y-69829438D01*
X137492619Y-69732676D01*
X137444238Y-69539152D01*
X137444238Y-69200485D01*
X137492619Y-69006961D01*
X137589380Y-68910200D01*
X137686142Y-68861819D01*
X138992428Y-69200485D02*
X138992428Y-69877819D01*
X138557000Y-69200485D02*
X138557000Y-69732676D01*
X138605380Y-69829438D01*
X138702142Y-69877819D01*
X138847285Y-69877819D01*
X138944047Y-69829438D01*
X138992428Y-69781057D01*
X139331095Y-69200485D02*
X139718142Y-69200485D01*
X139476238Y-68861819D02*
X139476238Y-69732676D01*
X139524619Y-69829438D01*
X139621380Y-69877819D01*
X139718142Y-69877819D01*
D11*
X144568333Y-58791323D02*
X145294047Y-58791323D01*
X144931190Y-60061323D02*
X144931190Y-58791323D01*
X145596428Y-59214657D02*
X145838333Y-60061323D01*
X146080238Y-59456561D01*
X146322142Y-60061323D01*
X146564047Y-59214657D01*
X147047857Y-60061323D02*
X147047857Y-59214657D01*
X147047857Y-58791323D02*
X146987380Y-58851800D01*
X147047857Y-58912276D01*
X147108333Y-58851800D01*
X147047857Y-58791323D01*
X147047857Y-58912276D01*
X147652619Y-59214657D02*
X147652619Y-60061323D01*
X147652619Y-59335609D02*
X147713095Y-59275133D01*
X147834047Y-59214657D01*
X148015476Y-59214657D01*
X148136428Y-59275133D01*
X148196904Y-59396085D01*
X148196904Y-60061323D01*
X148801666Y-59577514D02*
X149769285Y-59577514D01*
X150192619Y-58791323D02*
X150918333Y-58791323D01*
X150555476Y-60061323D02*
X150555476Y-58791323D01*
X153035000Y-59940371D02*
X152974523Y-60000847D01*
X152793095Y-60061323D01*
X152672142Y-60061323D01*
X152490714Y-60000847D01*
X152369761Y-59879895D01*
X152309285Y-59758942D01*
X152248809Y-59517038D01*
X152248809Y-59335609D01*
X152309285Y-59093704D01*
X152369761Y-58972752D01*
X152490714Y-58851800D01*
X152672142Y-58791323D01*
X152793095Y-58791323D01*
X152974523Y-58851800D01*
X153035000Y-58912276D01*
X153760714Y-60061323D02*
X153639761Y-60000847D01*
X153579285Y-59940371D01*
X153518809Y-59819419D01*
X153518809Y-59456561D01*
X153579285Y-59335609D01*
X153639761Y-59275133D01*
X153760714Y-59214657D01*
X153942142Y-59214657D01*
X154063095Y-59275133D01*
X154123571Y-59335609D01*
X154184047Y-59456561D01*
X154184047Y-59819419D01*
X154123571Y-59940371D01*
X154063095Y-60000847D01*
X153942142Y-60061323D01*
X153760714Y-60061323D01*
X155272619Y-60061323D02*
X155272619Y-58791323D01*
X155272619Y-60000847D02*
X155151666Y-60061323D01*
X154909761Y-60061323D01*
X154788809Y-60000847D01*
X154728333Y-59940371D01*
X154667857Y-59819419D01*
X154667857Y-59456561D01*
X154728333Y-59335609D01*
X154788809Y-59275133D01*
X154909761Y-59214657D01*
X155151666Y-59214657D01*
X155272619Y-59275133D01*
X156361190Y-60000847D02*
X156240238Y-60061323D01*
X155998333Y-60061323D01*
X155877380Y-60000847D01*
X155816904Y-59879895D01*
X155816904Y-59396085D01*
X155877380Y-59275133D01*
X155998333Y-59214657D01*
X156240238Y-59214657D01*
X156361190Y-59275133D01*
X156421666Y-59396085D01*
X156421666Y-59517038D01*
X155816904Y-59637990D01*
X157933571Y-60061323D02*
X157933571Y-58791323D01*
X158417380Y-58791323D01*
X158538333Y-58851800D01*
X158598809Y-58912276D01*
X158659285Y-59033228D01*
X158659285Y-59214657D01*
X158598809Y-59335609D01*
X158538333Y-59396085D01*
X158417380Y-59456561D01*
X157933571Y-59456561D01*
X159203571Y-60061323D02*
X159203571Y-59214657D01*
X159203571Y-59456561D02*
X159264047Y-59335609D01*
X159324523Y-59275133D01*
X159445476Y-59214657D01*
X159566428Y-59214657D01*
X160534047Y-60061323D02*
X160534047Y-59396085D01*
X160473571Y-59275133D01*
X160352619Y-59214657D01*
X160110714Y-59214657D01*
X159989761Y-59275133D01*
X160534047Y-60000847D02*
X160413095Y-60061323D01*
X160110714Y-60061323D01*
X159989761Y-60000847D01*
X159929285Y-59879895D01*
X159929285Y-59758942D01*
X159989761Y-59637990D01*
X160110714Y-59577514D01*
X160413095Y-59577514D01*
X160534047Y-59517038D01*
X161683095Y-60000847D02*
X161562142Y-60061323D01*
X161320238Y-60061323D01*
X161199285Y-60000847D01*
X161138809Y-59940371D01*
X161078333Y-59819419D01*
X161078333Y-59456561D01*
X161138809Y-59335609D01*
X161199285Y-59275133D01*
X161320238Y-59214657D01*
X161562142Y-59214657D01*
X161683095Y-59275133D01*
X162045952Y-59214657D02*
X162529761Y-59214657D01*
X162227380Y-58791323D02*
X162227380Y-59879895D01*
X162287857Y-60000847D01*
X162408809Y-60061323D01*
X162529761Y-60061323D01*
X162953095Y-60061323D02*
X162953095Y-59214657D01*
X162953095Y-58791323D02*
X162892619Y-58851800D01*
X162953095Y-58912276D01*
X163013571Y-58851800D01*
X162953095Y-58791323D01*
X162953095Y-58912276D01*
X164102142Y-60000847D02*
X163981190Y-60061323D01*
X163739285Y-60061323D01*
X163618333Y-60000847D01*
X163557857Y-59940371D01*
X163497380Y-59819419D01*
X163497380Y-59456561D01*
X163557857Y-59335609D01*
X163618333Y-59275133D01*
X163739285Y-59214657D01*
X163981190Y-59214657D01*
X164102142Y-59275133D01*
X165130238Y-60000847D02*
X165009285Y-60061323D01*
X164767380Y-60061323D01*
X164646428Y-60000847D01*
X164585952Y-59879895D01*
X164585952Y-59396085D01*
X164646428Y-59275133D01*
X164767380Y-59214657D01*
X165009285Y-59214657D01*
X165130238Y-59275133D01*
X165190714Y-59396085D01*
X165190714Y-59517038D01*
X164585952Y-59637990D01*
X166944523Y-58791323D02*
X167186428Y-58791323D01*
X167307380Y-58851800D01*
X167428333Y-58972752D01*
X167488809Y-59214657D01*
X167488809Y-59637990D01*
X167428333Y-59879895D01*
X167307380Y-60000847D01*
X167186428Y-60061323D01*
X166944523Y-60061323D01*
X166823571Y-60000847D01*
X166702619Y-59879895D01*
X166642142Y-59637990D01*
X166642142Y-59214657D01*
X166702619Y-58972752D01*
X166823571Y-58851800D01*
X166944523Y-58791323D01*
X167972619Y-60000847D02*
X168093571Y-60061323D01*
X168335476Y-60061323D01*
X168456428Y-60000847D01*
X168516904Y-59879895D01*
X168516904Y-59819419D01*
X168456428Y-59698466D01*
X168335476Y-59637990D01*
X168154047Y-59637990D01*
X168033095Y-59577514D01*
X167972619Y-59456561D01*
X167972619Y-59396085D01*
X168033095Y-59275133D01*
X168154047Y-59214657D01*
X168335476Y-59214657D01*
X168456428Y-59275133D01*
X169605476Y-60000847D02*
X169484523Y-60061323D01*
X169242619Y-60061323D01*
X169121666Y-60000847D01*
X169061190Y-59940371D01*
X169000714Y-59819419D01*
X169000714Y-59456561D01*
X169061190Y-59335609D01*
X169121666Y-59275133D01*
X169242619Y-59214657D01*
X169484523Y-59214657D01*
X169605476Y-59275133D01*
X170149761Y-60061323D02*
X170149761Y-59214657D01*
X170149761Y-58791323D02*
X170089285Y-58851800D01*
X170149761Y-58912276D01*
X170210238Y-58851800D01*
X170149761Y-58791323D01*
X170149761Y-58912276D01*
X170935952Y-60061323D02*
X170815000Y-60000847D01*
X170754523Y-59879895D01*
X170754523Y-58791323D01*
X171601190Y-60061323D02*
X171480238Y-60000847D01*
X171419761Y-59879895D01*
X171419761Y-58791323D01*
X172629285Y-60061323D02*
X172629285Y-59396085D01*
X172568809Y-59275133D01*
X172447857Y-59214657D01*
X172205952Y-59214657D01*
X172085000Y-59275133D01*
X172629285Y-60000847D02*
X172508333Y-60061323D01*
X172205952Y-60061323D01*
X172085000Y-60000847D01*
X172024523Y-59879895D01*
X172024523Y-59758942D01*
X172085000Y-59637990D01*
X172205952Y-59577514D01*
X172508333Y-59577514D01*
X172629285Y-59517038D01*
X173052619Y-59214657D02*
X173536428Y-59214657D01*
X173234047Y-58791323D02*
X173234047Y-59879895D01*
X173294523Y-60000847D01*
X173415476Y-60061323D01*
X173536428Y-60061323D01*
X174141190Y-60061323D02*
X174020238Y-60000847D01*
X173959761Y-59940371D01*
X173899285Y-59819419D01*
X173899285Y-59456561D01*
X173959761Y-59335609D01*
X174020238Y-59275133D01*
X174141190Y-59214657D01*
X174322619Y-59214657D01*
X174443571Y-59275133D01*
X174504047Y-59335609D01*
X174564523Y-59456561D01*
X174564523Y-59819419D01*
X174504047Y-59940371D01*
X174443571Y-60000847D01*
X174322619Y-60061323D01*
X174141190Y-60061323D01*
X175108809Y-60061323D02*
X175108809Y-59214657D01*
X175108809Y-59456561D02*
X175169285Y-59335609D01*
X175229761Y-59275133D01*
X175350714Y-59214657D01*
X175471666Y-59214657D01*
X148045714Y-61504285D02*
X148227142Y-61564761D01*
X148287619Y-61625238D01*
X148348095Y-61746190D01*
X148348095Y-61927619D01*
X148287619Y-62048571D01*
X148227142Y-62109047D01*
X148106190Y-62169523D01*
X147622380Y-62169523D01*
X147622380Y-60899523D01*
X148045714Y-60899523D01*
X148166666Y-60960000D01*
X148227142Y-61020476D01*
X148287619Y-61141428D01*
X148287619Y-61262380D01*
X148227142Y-61383333D01*
X148166666Y-61443809D01*
X148045714Y-61504285D01*
X147622380Y-61504285D01*
X149436666Y-62169523D02*
X149436666Y-61504285D01*
X149376190Y-61383333D01*
X149255238Y-61322857D01*
X149013333Y-61322857D01*
X148892380Y-61383333D01*
X149436666Y-62109047D02*
X149315714Y-62169523D01*
X149013333Y-62169523D01*
X148892380Y-62109047D01*
X148831904Y-61988095D01*
X148831904Y-61867142D01*
X148892380Y-61746190D01*
X149013333Y-61685714D01*
X149315714Y-61685714D01*
X149436666Y-61625238D01*
X149980952Y-62109047D02*
X150101904Y-62169523D01*
X150343809Y-62169523D01*
X150464761Y-62109047D01*
X150525238Y-61988095D01*
X150525238Y-61927619D01*
X150464761Y-61806666D01*
X150343809Y-61746190D01*
X150162380Y-61746190D01*
X150041428Y-61685714D01*
X149980952Y-61564761D01*
X149980952Y-61504285D01*
X150041428Y-61383333D01*
X150162380Y-61322857D01*
X150343809Y-61322857D01*
X150464761Y-61383333D01*
X151553333Y-62109047D02*
X151432380Y-62169523D01*
X151190476Y-62169523D01*
X151069523Y-62109047D01*
X151009047Y-61988095D01*
X151009047Y-61504285D01*
X151069523Y-61383333D01*
X151190476Y-61322857D01*
X151432380Y-61322857D01*
X151553333Y-61383333D01*
X151613809Y-61504285D01*
X151613809Y-61625238D01*
X151009047Y-61746190D01*
X152702380Y-62169523D02*
X152702380Y-60899523D01*
X152702380Y-62109047D02*
X152581428Y-62169523D01*
X152339523Y-62169523D01*
X152218571Y-62109047D01*
X152158095Y-62048571D01*
X152097619Y-61927619D01*
X152097619Y-61564761D01*
X152158095Y-61443809D01*
X152218571Y-61383333D01*
X152339523Y-61322857D01*
X152581428Y-61322857D01*
X152702380Y-61383333D01*
X154819047Y-61322857D02*
X154819047Y-62169523D01*
X154274761Y-61322857D02*
X154274761Y-61988095D01*
X154335238Y-62109047D01*
X154456190Y-62169523D01*
X154637619Y-62169523D01*
X154758571Y-62109047D01*
X154819047Y-62048571D01*
X155423809Y-61322857D02*
X155423809Y-62592857D01*
X155423809Y-61383333D02*
X155544761Y-61322857D01*
X155786666Y-61322857D01*
X155907619Y-61383333D01*
X155968095Y-61443809D01*
X156028571Y-61564761D01*
X156028571Y-61927619D01*
X155968095Y-62048571D01*
X155907619Y-62109047D01*
X155786666Y-62169523D01*
X155544761Y-62169523D01*
X155423809Y-62109047D01*
X156754285Y-62169523D02*
X156633333Y-62109047D01*
X156572857Y-62048571D01*
X156512380Y-61927619D01*
X156512380Y-61564761D01*
X156572857Y-61443809D01*
X156633333Y-61383333D01*
X156754285Y-61322857D01*
X156935714Y-61322857D01*
X157056666Y-61383333D01*
X157117142Y-61443809D01*
X157177619Y-61564761D01*
X157177619Y-61927619D01*
X157117142Y-62048571D01*
X157056666Y-62109047D01*
X156935714Y-62169523D01*
X156754285Y-62169523D01*
X157721904Y-61322857D02*
X157721904Y-62169523D01*
X157721904Y-61443809D02*
X157782380Y-61383333D01*
X157903333Y-61322857D01*
X158084761Y-61322857D01*
X158205714Y-61383333D01*
X158266190Y-61504285D01*
X158266190Y-62169523D01*
X159657142Y-61322857D02*
X160140952Y-61322857D01*
X159838571Y-60899523D02*
X159838571Y-61988095D01*
X159899047Y-62109047D01*
X160020000Y-62169523D01*
X160140952Y-62169523D01*
X160564285Y-62169523D02*
X160564285Y-60899523D01*
X161108571Y-62169523D02*
X161108571Y-61504285D01*
X161048095Y-61383333D01*
X160927142Y-61322857D01*
X160745714Y-61322857D01*
X160624761Y-61383333D01*
X160564285Y-61443809D01*
X162197142Y-62109047D02*
X162076190Y-62169523D01*
X161834285Y-62169523D01*
X161713333Y-62109047D01*
X161652857Y-61988095D01*
X161652857Y-61504285D01*
X161713333Y-61383333D01*
X161834285Y-61322857D01*
X162076190Y-61322857D01*
X162197142Y-61383333D01*
X162257619Y-61504285D01*
X162257619Y-61625238D01*
X161652857Y-61746190D01*
X164313809Y-62169523D02*
X164313809Y-60899523D01*
X164313809Y-62109047D02*
X164192857Y-62169523D01*
X163950952Y-62169523D01*
X163830000Y-62109047D01*
X163769523Y-62048571D01*
X163709047Y-61927619D01*
X163709047Y-61564761D01*
X163769523Y-61443809D01*
X163830000Y-61383333D01*
X163950952Y-61322857D01*
X164192857Y-61322857D01*
X164313809Y-61383333D01*
X165402380Y-62109047D02*
X165281428Y-62169523D01*
X165039523Y-62169523D01*
X164918571Y-62109047D01*
X164858095Y-61988095D01*
X164858095Y-61504285D01*
X164918571Y-61383333D01*
X165039523Y-61322857D01*
X165281428Y-61322857D01*
X165402380Y-61383333D01*
X165462857Y-61504285D01*
X165462857Y-61625238D01*
X164858095Y-61746190D01*
X165946666Y-62109047D02*
X166067619Y-62169523D01*
X166309523Y-62169523D01*
X166430476Y-62109047D01*
X166490952Y-61988095D01*
X166490952Y-61927619D01*
X166430476Y-61806666D01*
X166309523Y-61746190D01*
X166128095Y-61746190D01*
X166007142Y-61685714D01*
X165946666Y-61564761D01*
X165946666Y-61504285D01*
X166007142Y-61383333D01*
X166128095Y-61322857D01*
X166309523Y-61322857D01*
X166430476Y-61383333D01*
X167035238Y-62169523D02*
X167035238Y-61322857D01*
X167035238Y-60899523D02*
X166974761Y-60960000D01*
X167035238Y-61020476D01*
X167095714Y-60960000D01*
X167035238Y-60899523D01*
X167035238Y-61020476D01*
X168184285Y-61322857D02*
X168184285Y-62350952D01*
X168123809Y-62471904D01*
X168063333Y-62532380D01*
X167942380Y-62592857D01*
X167760952Y-62592857D01*
X167640000Y-62532380D01*
X168184285Y-62109047D02*
X168063333Y-62169523D01*
X167821428Y-62169523D01*
X167700476Y-62109047D01*
X167640000Y-62048571D01*
X167579523Y-61927619D01*
X167579523Y-61564761D01*
X167640000Y-61443809D01*
X167700476Y-61383333D01*
X167821428Y-61322857D01*
X168063333Y-61322857D01*
X168184285Y-61383333D01*
X168789047Y-61322857D02*
X168789047Y-62169523D01*
X168789047Y-61443809D02*
X168849523Y-61383333D01*
X168970476Y-61322857D01*
X169151904Y-61322857D01*
X169272857Y-61383333D01*
X169333333Y-61504285D01*
X169333333Y-62169523D01*
X170905714Y-62169523D02*
X170905714Y-60899523D01*
X170905714Y-61383333D02*
X171026666Y-61322857D01*
X171268571Y-61322857D01*
X171389523Y-61383333D01*
X171450000Y-61443809D01*
X171510476Y-61564761D01*
X171510476Y-61927619D01*
X171450000Y-62048571D01*
X171389523Y-62109047D01*
X171268571Y-62169523D01*
X171026666Y-62169523D01*
X170905714Y-62109047D01*
X171933809Y-61322857D02*
X172236190Y-62169523D01*
X172538571Y-61322857D02*
X172236190Y-62169523D01*
X172115238Y-62471904D01*
X172054761Y-62532380D01*
X171933809Y-62592857D01*
X146957142Y-64277723D02*
X146957142Y-63007723D01*
X147380476Y-63914866D01*
X147803809Y-63007723D01*
X147803809Y-64277723D01*
X148408571Y-64277723D02*
X148408571Y-63431057D01*
X148408571Y-63007723D02*
X148348095Y-63068200D01*
X148408571Y-63128676D01*
X148469047Y-63068200D01*
X148408571Y-63007723D01*
X148408571Y-63128676D01*
X149557619Y-64217247D02*
X149436666Y-64277723D01*
X149194761Y-64277723D01*
X149073809Y-64217247D01*
X149013333Y-64156771D01*
X148952857Y-64035819D01*
X148952857Y-63672961D01*
X149013333Y-63552009D01*
X149073809Y-63491533D01*
X149194761Y-63431057D01*
X149436666Y-63431057D01*
X149557619Y-63491533D01*
X150101904Y-64277723D02*
X150101904Y-63007723D01*
X150646190Y-64277723D02*
X150646190Y-63612485D01*
X150585714Y-63491533D01*
X150464761Y-63431057D01*
X150283333Y-63431057D01*
X150162380Y-63491533D01*
X150101904Y-63552009D01*
X151795238Y-64277723D02*
X151795238Y-63612485D01*
X151734761Y-63491533D01*
X151613809Y-63431057D01*
X151371904Y-63431057D01*
X151250952Y-63491533D01*
X151795238Y-64217247D02*
X151674285Y-64277723D01*
X151371904Y-64277723D01*
X151250952Y-64217247D01*
X151190476Y-64096295D01*
X151190476Y-63975342D01*
X151250952Y-63854390D01*
X151371904Y-63793914D01*
X151674285Y-63793914D01*
X151795238Y-63733438D01*
X152883809Y-64217247D02*
X152762857Y-64277723D01*
X152520952Y-64277723D01*
X152400000Y-64217247D01*
X152339523Y-64096295D01*
X152339523Y-63612485D01*
X152400000Y-63491533D01*
X152520952Y-63431057D01*
X152762857Y-63431057D01*
X152883809Y-63491533D01*
X152944285Y-63612485D01*
X152944285Y-63733438D01*
X152339523Y-63854390D01*
X153670000Y-64277723D02*
X153549047Y-64217247D01*
X153488571Y-64096295D01*
X153488571Y-63007723D01*
X155060952Y-63914866D02*
X155665714Y-63914866D01*
X154940000Y-64277723D02*
X155363333Y-63007723D01*
X155786666Y-64277723D01*
X156210000Y-64156771D02*
X156270476Y-64217247D01*
X156210000Y-64277723D01*
X156149523Y-64217247D01*
X156210000Y-64156771D01*
X156210000Y-64277723D01*
X157782380Y-64277723D02*
X157782380Y-63007723D01*
X158205714Y-63914866D01*
X158629047Y-63007723D01*
X158629047Y-64277723D01*
X159778095Y-64277723D02*
X159778095Y-63612485D01*
X159717619Y-63491533D01*
X159596666Y-63431057D01*
X159354761Y-63431057D01*
X159233809Y-63491533D01*
X159778095Y-64217247D02*
X159657142Y-64277723D01*
X159354761Y-64277723D01*
X159233809Y-64217247D01*
X159173333Y-64096295D01*
X159173333Y-63975342D01*
X159233809Y-63854390D01*
X159354761Y-63793914D01*
X159657142Y-63793914D01*
X159778095Y-63733438D01*
X160261904Y-63431057D02*
X160564285Y-64277723D01*
X160866666Y-63431057D02*
X160564285Y-64277723D01*
X160443333Y-64580104D01*
X160382857Y-64640580D01*
X160261904Y-64701057D01*
X161350476Y-63431057D02*
X161350476Y-64277723D01*
X161350476Y-63552009D02*
X161410952Y-63491533D01*
X161531904Y-63431057D01*
X161713333Y-63431057D01*
X161834285Y-63491533D01*
X161894761Y-63612485D01*
X161894761Y-64277723D01*
X163043809Y-64277723D02*
X163043809Y-63612485D01*
X162983333Y-63491533D01*
X162862380Y-63431057D01*
X162620476Y-63431057D01*
X162499523Y-63491533D01*
X163043809Y-64217247D02*
X162922857Y-64277723D01*
X162620476Y-64277723D01*
X162499523Y-64217247D01*
X162439047Y-64096295D01*
X162439047Y-63975342D01*
X162499523Y-63854390D01*
X162620476Y-63793914D01*
X162922857Y-63793914D01*
X163043809Y-63733438D01*
X163648571Y-64277723D02*
X163648571Y-63431057D01*
X163648571Y-63672961D02*
X163709047Y-63552009D01*
X163769523Y-63491533D01*
X163890476Y-63431057D01*
X164011428Y-63431057D01*
X164979047Y-64277723D02*
X164979047Y-63007723D01*
X164979047Y-64217247D02*
X164858095Y-64277723D01*
X164616190Y-64277723D01*
X164495238Y-64217247D01*
X164434761Y-64156771D01*
X164374285Y-64035819D01*
X164374285Y-63672961D01*
X164434761Y-63552009D01*
X164495238Y-63491533D01*
X164616190Y-63431057D01*
X164858095Y-63431057D01*
X164979047Y-63491533D01*
X166914285Y-64761533D02*
X166853809Y-64701057D01*
X166732857Y-64519628D01*
X166672380Y-64398676D01*
X166611904Y-64217247D01*
X166551428Y-63914866D01*
X166551428Y-63672961D01*
X166611904Y-63370580D01*
X166672380Y-63189152D01*
X166732857Y-63068200D01*
X166853809Y-62886771D01*
X166914285Y-62826295D01*
X167398095Y-64277723D02*
X167398095Y-63007723D01*
X168123809Y-64277723D02*
X167579523Y-63552009D01*
X168123809Y-63007723D02*
X167398095Y-63733438D01*
X169212380Y-63431057D02*
X169212380Y-64277723D01*
X168910000Y-62947247D02*
X168607619Y-63854390D01*
X169393809Y-63854390D01*
X169877619Y-64277723D02*
X169877619Y-63007723D01*
X171208095Y-64156771D02*
X171147619Y-64217247D01*
X170966190Y-64277723D01*
X170845238Y-64277723D01*
X170663809Y-64217247D01*
X170542857Y-64096295D01*
X170482380Y-63975342D01*
X170421904Y-63733438D01*
X170421904Y-63552009D01*
X170482380Y-63310104D01*
X170542857Y-63189152D01*
X170663809Y-63068200D01*
X170845238Y-63007723D01*
X170966190Y-63007723D01*
X171147619Y-63068200D01*
X171208095Y-63128676D01*
X171994285Y-63672961D02*
X171994285Y-64277723D01*
X171570952Y-63007723D02*
X171994285Y-63672961D01*
X172417619Y-63007723D01*
X172720000Y-64761533D02*
X172780476Y-64701057D01*
X172901428Y-64519628D01*
X172961904Y-64398676D01*
X173022380Y-64217247D01*
X173082857Y-63914866D01*
X173082857Y-63672961D01*
X173022380Y-63370580D01*
X172961904Y-63189152D01*
X172901428Y-63068200D01*
X172780476Y-62886771D01*
X172720000Y-62826295D01*
D10*
X191939333Y-52148619D02*
X192568285Y-52148619D01*
X192229619Y-52535666D01*
X192374761Y-52535666D01*
X192471523Y-52584047D01*
X192519904Y-52632428D01*
X192568285Y-52729190D01*
X192568285Y-52971095D01*
X192519904Y-53067857D01*
X192471523Y-53116238D01*
X192374761Y-53164619D01*
X192084476Y-53164619D01*
X191987714Y-53116238D01*
X191939333Y-53067857D01*
X191987714Y-49705380D02*
X192036095Y-49657000D01*
X192132857Y-49608619D01*
X192374761Y-49608619D01*
X192471523Y-49657000D01*
X192519904Y-49705380D01*
X192568285Y-49802142D01*
X192568285Y-49898904D01*
X192519904Y-50044047D01*
X191939333Y-50624619D01*
X192568285Y-50624619D01*
X192568285Y-48084619D02*
X191987714Y-48084619D01*
X192278000Y-48084619D02*
X192278000Y-47068619D01*
X192181238Y-47213761D01*
X192084476Y-47310523D01*
X191987714Y-47358904D01*
X191987714Y-63040380D02*
X192036095Y-62992000D01*
X192132857Y-62943619D01*
X192374761Y-62943619D01*
X192471523Y-62992000D01*
X192519904Y-63040380D01*
X192568285Y-63137142D01*
X192568285Y-63233904D01*
X192519904Y-63379047D01*
X191939333Y-63959619D01*
X192568285Y-63959619D01*
X192568285Y-61419619D02*
X191987714Y-61419619D01*
X192278000Y-61419619D02*
X192278000Y-60403619D01*
X192181238Y-60548761D01*
X192084476Y-60645523D01*
X191987714Y-60693904D01*
X184367714Y-71930380D02*
X184416095Y-71882000D01*
X184512857Y-71833619D01*
X184754761Y-71833619D01*
X184851523Y-71882000D01*
X184899904Y-71930380D01*
X184948285Y-72027142D01*
X184948285Y-72123904D01*
X184899904Y-72269047D01*
X184319333Y-72849619D01*
X184948285Y-72849619D01*
X184948285Y-70309619D02*
X184367714Y-70309619D01*
X184658000Y-70309619D02*
X184658000Y-69293619D01*
X184561238Y-69438761D01*
X184464476Y-69535523D01*
X184367714Y-69583904D01*
X177969333Y-71833619D02*
X178598285Y-71833619D01*
X178259619Y-72220666D01*
X178404761Y-72220666D01*
X178501523Y-72269047D01*
X178549904Y-72317428D01*
X178598285Y-72414190D01*
X178598285Y-72656095D01*
X178549904Y-72752857D01*
X178501523Y-72801238D01*
X178404761Y-72849619D01*
X178114476Y-72849619D01*
X178017714Y-72801238D01*
X177969333Y-72752857D01*
X178598285Y-67769619D02*
X178017714Y-67769619D01*
X178308000Y-67769619D02*
X178308000Y-66753619D01*
X178211238Y-66898761D01*
X178114476Y-66995523D01*
X178017714Y-67043904D01*
X178017714Y-69390380D02*
X178066095Y-69342000D01*
X178162857Y-69293619D01*
X178404761Y-69293619D01*
X178501523Y-69342000D01*
X178549904Y-69390380D01*
X178598285Y-69487142D01*
X178598285Y-69583904D01*
X178549904Y-69729047D01*
X177969333Y-70309619D01*
X178598285Y-70309619D01*
X171667714Y-71930380D02*
X171716095Y-71882000D01*
X171812857Y-71833619D01*
X172054761Y-71833619D01*
X172151523Y-71882000D01*
X172199904Y-71930380D01*
X172248285Y-72027142D01*
X172248285Y-72123904D01*
X172199904Y-72269047D01*
X171619333Y-72849619D01*
X172248285Y-72849619D01*
X172248285Y-70309619D02*
X171667714Y-70309619D01*
X171958000Y-70309619D02*
X171958000Y-69293619D01*
X171861238Y-69438761D01*
X171764476Y-69535523D01*
X171667714Y-69583904D01*
X127931333Y-63959619D02*
X128560285Y-63959619D01*
X128221619Y-64346666D01*
X128366761Y-64346666D01*
X128463523Y-64395047D01*
X128511904Y-64443428D01*
X128560285Y-64540190D01*
X128560285Y-64782095D01*
X128511904Y-64878857D01*
X128463523Y-64927238D01*
X128366761Y-64975619D01*
X128076476Y-64975619D01*
X127979714Y-64927238D01*
X127931333Y-64878857D01*
X125439714Y-64056380D02*
X125488095Y-64008000D01*
X125584857Y-63959619D01*
X125826761Y-63959619D01*
X125923523Y-64008000D01*
X125971904Y-64056380D01*
X126020285Y-64153142D01*
X126020285Y-64249904D01*
X125971904Y-64395047D01*
X125391333Y-64975619D01*
X126020285Y-64975619D01*
X123480285Y-64975619D02*
X122899714Y-64975619D01*
X123190000Y-64975619D02*
X123190000Y-63959619D01*
X123093238Y-64104761D01*
X122996476Y-64201523D01*
X122899714Y-64249904D01*
X114644714Y-64056380D02*
X114693095Y-64008000D01*
X114789857Y-63959619D01*
X115031761Y-63959619D01*
X115128523Y-64008000D01*
X115176904Y-64056380D01*
X115225285Y-64153142D01*
X115225285Y-64249904D01*
X115176904Y-64395047D01*
X114596333Y-64975619D01*
X115225285Y-64975619D01*
X112685285Y-64975619D02*
X112104714Y-64975619D01*
X112395000Y-64975619D02*
X112395000Y-63959619D01*
X112298238Y-64104761D01*
X112201476Y-64201523D01*
X112104714Y-64249904D01*
X124460000Y-65405000D02*
X129540000Y-65405000D01*
X129540000Y-67945000D02*
X124460000Y-67945000D01*
X129540000Y-65405000D02*
X129540000Y-67945000D01*
X195580000Y-48895000D02*
X195580000Y-53975000D01*
X193040000Y-53975000D02*
X193040000Y-48895000D01*
X195580000Y-53975000D02*
X193040000Y-53975000D01*
X181610000Y-68580000D02*
X181610000Y-73660000D01*
X179070000Y-73660000D02*
X179070000Y-68580000D01*
X181610000Y-73660000D02*
X179070000Y-73660000D01*
X113665000Y-65405000D02*
X116205000Y-65405000D01*
X116205000Y-65405000D02*
X116205000Y-67945000D01*
X116205000Y-67945000D02*
X113665000Y-67945000D01*
X195580000Y-62230000D02*
X195580000Y-64770000D01*
X195580000Y-64770000D02*
X193040000Y-64770000D01*
X193040000Y-64770000D02*
X193040000Y-62230000D01*
X172720000Y-73660000D02*
X172720000Y-71120000D01*
X175260000Y-73660000D02*
X172720000Y-73660000D01*
X175260000Y-71120000D02*
X175260000Y-73660000D01*
X185420000Y-73660000D02*
X185420000Y-71120000D01*
X187960000Y-73660000D02*
X185420000Y-73660000D01*
X187960000Y-71120000D02*
X187960000Y-73660000D01*
D12*
X181483000Y-32258000D02*
X181483000Y-32766000D01*
X181737000Y-32512000D02*
X181229000Y-32512000D01*
D10*
X178548365Y-35960695D02*
G75*
G02*
X177673000Y-34290000I1156635J1670695D01*
G01*
X178548365Y-32619305D02*
G75*
G03*
X177673000Y-34290000I1156635J-1670695D01*
G01*
X180861635Y-32619305D02*
G75*
G02*
X181737000Y-34290000I-1156635J-1670695D01*
G01*
X180861635Y-35960695D02*
G75*
G03*
X181737000Y-34290000I-1156635J1670695D01*
G01*
X131826000Y-48133000D02*
X134874000Y-48133000D01*
X134874000Y-45847000D02*
X131826000Y-45847000D01*
X131459577Y-46123622D02*
G75*
G02*
X131826000Y-45847000I366423J-104378D01*
G01*
X131826293Y-48121830D02*
G75*
G02*
X131470400Y-47853600I-293J369830D01*
G01*
X135240423Y-47856378D02*
G75*
G02*
X134874000Y-48133000I-366423J104378D01*
G01*
X134873707Y-45858170D02*
G75*
G02*
X135229600Y-46126400I293J-369830D01*
G01*
X152781000Y-72898000D02*
X154114500Y-72898000D01*
X152781000Y-71882000D02*
X152781000Y-72898000D01*
X154114500Y-71882000D02*
X152781000Y-71882000D01*
X158369000Y-72898000D02*
X157035500Y-72898000D01*
X158369000Y-71882000D02*
X158369000Y-72898000D01*
X157035500Y-71882000D02*
X158369000Y-71882000D01*
X168275000Y-30480000D02*
X168275000Y-40640000D01*
X173355000Y-40640000D02*
X173355000Y-30480000D01*
X165735000Y-30480000D02*
X165735000Y-40640000D01*
X165735000Y-40640000D02*
X175895000Y-40640000D01*
X175895000Y-40640000D02*
X175895000Y-30480000D01*
X175895000Y-30480000D02*
X165735000Y-30480000D01*
X171831000Y-30480000D02*
G75*
G02*
X169799000Y-30480000I-1016000J0D01*
G01*
X128270000Y-30480000D02*
X128270000Y-40640000D01*
X133350000Y-40640000D02*
X133350000Y-30480000D01*
X125730000Y-30480000D02*
X125730000Y-40640000D01*
X125730000Y-40640000D02*
X135890000Y-40640000D01*
X135890000Y-40640000D02*
X135890000Y-30480000D01*
X135890000Y-30480000D02*
X125730000Y-30480000D01*
X131826000Y-30480000D02*
G75*
G02*
X129794000Y-30480000I-1016000J0D01*
G01*
X161899600Y-35941000D02*
X161899600Y-35179000D01*
X163220400Y-35941000D02*
X163220400Y-35179000D01*
X187325000Y-52705000D02*
G75*
G03*
X187325000Y-52705000I-5080000J0D01*
G01*
X128524000Y-72390000D02*
X114046000Y-72390000D01*
X162306000Y-72898000D02*
X163639500Y-72898000D01*
X162306000Y-71882000D02*
X162306000Y-72898000D01*
X163639500Y-71882000D02*
X162306000Y-71882000D01*
X167894000Y-72898000D02*
X166560500Y-72898000D01*
X167894000Y-71882000D02*
X167894000Y-72898000D01*
X166560500Y-71882000D02*
X167894000Y-71882000D01*
X194818000Y-41529000D02*
X194818000Y-40195500D01*
X193802000Y-41529000D02*
X194818000Y-41529000D01*
X193802000Y-40195500D02*
X193802000Y-41529000D01*
X194818000Y-35941000D02*
X194818000Y-37274500D01*
X193802000Y-35941000D02*
X194818000Y-35941000D01*
X193802000Y-37274500D02*
X193802000Y-35941000D01*
X143256000Y-72898000D02*
X144589500Y-72898000D01*
X143256000Y-71882000D02*
X143256000Y-72898000D01*
X144589500Y-71882000D02*
X143256000Y-71882000D01*
X148844000Y-72898000D02*
X147510500Y-72898000D01*
X148844000Y-71882000D02*
X148844000Y-72898000D01*
X147510500Y-71882000D02*
X148844000Y-71882000D01*
X133731000Y-72898000D02*
X135064500Y-72898000D01*
X133731000Y-71882000D02*
X133731000Y-72898000D01*
X135064500Y-71882000D02*
X133731000Y-71882000D01*
X139319000Y-72898000D02*
X137985500Y-72898000D01*
X139319000Y-71882000D02*
X139319000Y-72898000D01*
X137985500Y-71882000D02*
X139319000Y-71882000D01*
X198272400Y-29210000D02*
G75*
G03*
X198272400Y-29210000I-3962400J0D01*
G01*
X198272400Y-72390000D02*
G75*
G03*
X198272400Y-72390000I-3962400J0D01*
G01*
X109372400Y-72390000D02*
G75*
G03*
X109372400Y-72390000I-3962400J0D01*
G01*
X109372400Y-29210000D02*
G75*
G03*
X109372400Y-29210000I-3962400J0D01*
G01*
D12*
X157099000Y-40894000D02*
X156591000Y-40894000D01*
X156845000Y-41148000D02*
X156845000Y-40640000D01*
D10*
X156652631Y-38292369D02*
G75*
G03*
X155575000Y-37846000I-1077631J-1077631D01*
G01*
X154497369Y-38292369D02*
G75*
G02*
X155575000Y-37846000I1077631J-1077631D01*
G01*
X154497369Y-40447631D02*
G75*
G03*
X155575000Y-40894000I1077631J1077631D01*
G01*
X156652631Y-40447631D02*
G75*
G02*
X155575000Y-40894000I-1077631J1077631D01*
G01*
X185674000Y-40538400D02*
X178816000Y-40538400D01*
X178816000Y-40538400D02*
X178816000Y-38201600D01*
X185674000Y-38201600D02*
X185674000Y-40538400D01*
X178816000Y-38201600D02*
X185674000Y-38201600D01*
X148209000Y-53238400D02*
X141351000Y-53238400D01*
X141351000Y-53238400D02*
X141351000Y-50901600D01*
X148209000Y-50901600D02*
X148209000Y-53238400D01*
X141351000Y-50901600D02*
X148209000Y-50901600D01*
X141351000Y-41376600D02*
X148209000Y-41376600D01*
X148209000Y-41376600D02*
X148209000Y-43713400D01*
X141351000Y-43713400D02*
X141351000Y-41376600D01*
X148209000Y-43713400D02*
X141351000Y-43713400D01*
X113766600Y-60579000D02*
X113766600Y-53721000D01*
X113766600Y-53721000D02*
X116103400Y-53721000D01*
X116103400Y-60579000D02*
X113766600Y-60579000D01*
X116103400Y-53721000D02*
X116103400Y-60579000D01*
X109956600Y-60579000D02*
X109956600Y-53721000D01*
X109956600Y-53721000D02*
X112293400Y-53721000D01*
X112293400Y-60579000D02*
X109956600Y-60579000D01*
X112293400Y-53721000D02*
X112293400Y-60579000D01*
X116103400Y-43561000D02*
X116103400Y-50419000D01*
X116103400Y-50419000D02*
X113766600Y-50419000D01*
X113766600Y-43561000D02*
X116103400Y-43561000D01*
X113766600Y-50419000D02*
X113766600Y-43561000D01*
X109956600Y-50419000D02*
X109956600Y-43561000D01*
X109956600Y-43561000D02*
X112293400Y-43561000D01*
X112293400Y-50419000D02*
X109956600Y-50419000D01*
X112293400Y-43561000D02*
X112293400Y-50419000D01*
X166751000Y-43688000D02*
X169799000Y-43688000D01*
X169799000Y-41402000D02*
X166751000Y-41402000D01*
X166384577Y-41678622D02*
G75*
G02*
X166751000Y-41402000I366423J-104378D01*
G01*
X166751293Y-43676830D02*
G75*
G02*
X166395400Y-43408600I-293J369830D01*
G01*
X170165423Y-43411378D02*
G75*
G02*
X169799000Y-43688000I-366423J104378D01*
G01*
X169798707Y-41413170D02*
G75*
G02*
X170154600Y-41681400I293J-369830D01*
G01*
X126746000Y-43688000D02*
X129794000Y-43688000D01*
X129794000Y-41402000D02*
X126746000Y-41402000D01*
X126379577Y-41678622D02*
G75*
G02*
X126746000Y-41402000I366423J-104378D01*
G01*
X126746293Y-43676830D02*
G75*
G02*
X126390400Y-43408600I-293J369830D01*
G01*
X130160423Y-43411378D02*
G75*
G02*
X129794000Y-43688000I-366423J104378D01*
G01*
X129793707Y-41413170D02*
G75*
G02*
X130149600Y-41681400I293J-369830D01*
G01*
X148399500Y-35179000D02*
X146113500Y-35179000D01*
X148399500Y-35179000D02*
X148399500Y-32893000D01*
X141795500Y-35179000D02*
X141795500Y-32893000D01*
X147637500Y-28956000D02*
X147637500Y-29210000D01*
X142557500Y-28956000D02*
X142557500Y-29210000D01*
X142557500Y-28956000D02*
X147637500Y-28956000D01*
X141795500Y-35179000D02*
X144081500Y-35179000D01*
X148399500Y-30607000D02*
X148399500Y-29210000D01*
X141795500Y-29210000D02*
X141795500Y-30607000D01*
X148399500Y-29210000D02*
X141795500Y-29210000D01*
X141605000Y-38252400D02*
X147955000Y-38252400D01*
X147955000Y-38252400D02*
X147955000Y-40487600D01*
X147955000Y-40487600D02*
X141605000Y-40487600D01*
X141605000Y-40487600D02*
X141605000Y-38252400D01*
X141605000Y-39370000D02*
X140843000Y-39370000D01*
X147955000Y-39370000D02*
X148717000Y-39370000D01*
X185420000Y-44932600D02*
X179070000Y-44932600D01*
X179070000Y-44932600D02*
X179070000Y-42697400D01*
X179070000Y-42697400D02*
X185420000Y-42697400D01*
X185420000Y-42697400D02*
X185420000Y-44932600D01*
X185420000Y-43815000D02*
X186182000Y-43815000D01*
X179070000Y-43815000D02*
X178308000Y-43815000D01*
X158597600Y-47625000D02*
X158597600Y-53975000D01*
X158597600Y-53975000D02*
X156362400Y-53975000D01*
X156362400Y-53975000D02*
X156362400Y-47625000D01*
X156362400Y-47625000D02*
X158597600Y-47625000D01*
X157480000Y-47625000D02*
X157480000Y-46863000D01*
X157480000Y-53975000D02*
X157480000Y-54737000D01*
X153187400Y-53975000D02*
X153187400Y-47625000D01*
X153187400Y-47625000D02*
X155422600Y-47625000D01*
X155422600Y-47625000D02*
X155422600Y-53975000D01*
X155422600Y-53975000D02*
X153187400Y-53975000D01*
X154305000Y-53975000D02*
X154305000Y-54737000D01*
X154305000Y-47625000D02*
X154305000Y-46863000D01*
X141605000Y-47777400D02*
X147955000Y-47777400D01*
X147955000Y-47777400D02*
X147955000Y-50012600D01*
X147955000Y-50012600D02*
X141605000Y-50012600D01*
X141605000Y-50012600D02*
X141605000Y-47777400D01*
X141605000Y-48895000D02*
X140843000Y-48895000D01*
X147955000Y-48895000D02*
X148717000Y-48895000D01*
X133985000Y-51282600D02*
X127635000Y-51282600D01*
X127635000Y-51282600D02*
X127635000Y-49047400D01*
X127635000Y-49047400D02*
X133985000Y-49047400D01*
X133985000Y-49047400D02*
X133985000Y-51282600D01*
X133985000Y-50165000D02*
X134747000Y-50165000D01*
X127635000Y-50165000D02*
X126873000Y-50165000D01*
X127635000Y-52222400D02*
X133985000Y-52222400D01*
X133985000Y-52222400D02*
X133985000Y-54457600D01*
X133985000Y-54457600D02*
X127635000Y-54457600D01*
X127635000Y-54457600D02*
X127635000Y-52222400D01*
X127635000Y-53340000D02*
X126873000Y-53340000D01*
X133985000Y-53340000D02*
X134747000Y-53340000D01*
X141605000Y-44602400D02*
X147955000Y-44602400D01*
X147955000Y-44602400D02*
X147955000Y-46837600D01*
X147955000Y-46837600D02*
X141605000Y-46837600D01*
X141605000Y-46837600D02*
X141605000Y-44602400D01*
X141605000Y-45720000D02*
X140843000Y-45720000D01*
X147955000Y-45720000D02*
X148717000Y-45720000D01*
X116992400Y-52705000D02*
X116992400Y-46355000D01*
X116992400Y-46355000D02*
X119227600Y-46355000D01*
X119227600Y-46355000D02*
X119227600Y-52705000D01*
X119227600Y-52705000D02*
X116992400Y-52705000D01*
X118110000Y-52705000D02*
X118110000Y-53467000D01*
X118110000Y-46355000D02*
X118110000Y-45593000D01*
X109067600Y-46355000D02*
X109067600Y-52705000D01*
X109067600Y-52705000D02*
X106832400Y-52705000D01*
X106832400Y-52705000D02*
X106832400Y-46355000D01*
X106832400Y-46355000D02*
X109067600Y-46355000D01*
X107950000Y-46355000D02*
X107950000Y-45593000D01*
X107950000Y-52705000D02*
X107950000Y-53467000D01*
X113665000Y-30632400D02*
X120015000Y-30632400D01*
X120015000Y-30632400D02*
X120015000Y-32867600D01*
X120015000Y-32867600D02*
X113665000Y-32867600D01*
X113665000Y-32867600D02*
X113665000Y-30632400D01*
X113665000Y-31750000D02*
X112903000Y-31750000D01*
X120015000Y-31750000D02*
X120777000Y-31750000D01*
D12*
X140081000Y-62103000D02*
X140081000Y-61595000D01*
X140335000Y-61849000D02*
X139827000Y-61849000D01*
D13*
X137160000Y-62712600D02*
X137160000Y-56667400D01*
D14*
X136905456Y-62483950D02*
G75*
G02*
X136906001Y-56896001I254544J2793950D01*
G01*
D10*
X137160000Y-62865000D02*
G75*
G02*
X137160000Y-56515000I0J3175000D01*
G01*
X137160000Y-56515000D02*
G75*
G02*
X137160000Y-62865000I0J-3175000D01*
G01*
D12*
X168656000Y-51943000D02*
X168656000Y-51435000D01*
X168910000Y-51689000D02*
X168402000Y-51689000D01*
D13*
X165735000Y-52552600D02*
X165735000Y-46507400D01*
D14*
X165480456Y-52323950D02*
G75*
G02*
X165481001Y-46736001I254544J2793950D01*
G01*
D10*
X165735000Y-52705000D02*
G75*
G02*
X165735000Y-46355000I0J3175000D01*
G01*
X165735000Y-46355000D02*
G75*
G02*
X165735000Y-52705000I0J-3175000D01*
G01*
X159194500Y-33350200D02*
X154495500Y-33350200D01*
X159194500Y-33350200D02*
X159334200Y-33020000D01*
X154495500Y-33350200D02*
X154355800Y-33020000D01*
X154660600Y-30480000D02*
G75*
G02*
X159029400Y-30480000I2184400J-1625600D01*
G01*
X109410500Y-40335200D02*
X109270800Y-40005000D01*
X114109500Y-40335200D02*
X114249200Y-40005000D01*
X114109500Y-40335200D02*
X109410500Y-40335200D01*
X109575600Y-37465000D02*
G75*
G02*
X113944400Y-37465000I2184400J-1625600D01*
G01*
X120311333Y-66118619D02*
X120311333Y-66844333D01*
X120262952Y-66989476D01*
X120166190Y-67086238D01*
X120021047Y-67134619D01*
X119924285Y-67134619D01*
X121230571Y-66457285D02*
X121230571Y-67134619D01*
X120988666Y-66070238D02*
X120746761Y-66795952D01*
X121375714Y-66795952D01*
X122875523Y-68531619D02*
X123214190Y-69547619D01*
X123552857Y-68531619D01*
X124085047Y-68531619D02*
X124278571Y-68531619D01*
X124375333Y-68580000D01*
X124472095Y-68676761D01*
X124520476Y-68870285D01*
X124520476Y-69208952D01*
X124472095Y-69402476D01*
X124375333Y-69499238D01*
X124278571Y-69547619D01*
X124085047Y-69547619D01*
X123988285Y-69499238D01*
X123891523Y-69402476D01*
X123843142Y-69208952D01*
X123843142Y-68870285D01*
X123891523Y-68676761D01*
X123988285Y-68580000D01*
X124085047Y-68531619D01*
X125439714Y-69547619D02*
X124955904Y-69547619D01*
X124955904Y-68531619D01*
X125778380Y-68531619D02*
X125778380Y-69354095D01*
X125826761Y-69450857D01*
X125875142Y-69499238D01*
X125971904Y-69547619D01*
X126165428Y-69547619D01*
X126262190Y-69499238D01*
X126310571Y-69450857D01*
X126358952Y-69354095D01*
X126358952Y-68531619D01*
X126842761Y-69547619D02*
X126842761Y-68531619D01*
X127181428Y-69257333D01*
X127520095Y-68531619D01*
X127520095Y-69547619D01*
X128003904Y-69015428D02*
X128342571Y-69015428D01*
X128487714Y-69547619D02*
X128003904Y-69547619D01*
X128003904Y-68531619D01*
X128487714Y-68531619D01*
X193971333Y-44528619D02*
X193971333Y-45254333D01*
X193922952Y-45399476D01*
X193826190Y-45496238D01*
X193681047Y-45544619D01*
X193584285Y-45544619D01*
X194890571Y-44528619D02*
X194697047Y-44528619D01*
X194600285Y-44577000D01*
X194551904Y-44625380D01*
X194455142Y-44770523D01*
X194406761Y-44964047D01*
X194406761Y-45351095D01*
X194455142Y-45447857D01*
X194503523Y-45496238D01*
X194600285Y-45544619D01*
X194793809Y-45544619D01*
X194890571Y-45496238D01*
X194938952Y-45447857D01*
X194987333Y-45351095D01*
X194987333Y-45109190D01*
X194938952Y-45012428D01*
X194890571Y-44964047D01*
X194793809Y-44915666D01*
X194600285Y-44915666D01*
X194503523Y-44964047D01*
X194455142Y-45012428D01*
X194406761Y-45109190D01*
X197309619Y-52971095D02*
X196293619Y-52971095D01*
X196293619Y-52584047D01*
X196342000Y-52487285D01*
X196390380Y-52438904D01*
X196487142Y-52390523D01*
X196632285Y-52390523D01*
X196729047Y-52438904D01*
X196777428Y-52487285D01*
X196825809Y-52584047D01*
X196825809Y-52971095D01*
X197309619Y-51955095D02*
X196293619Y-51955095D01*
X196777428Y-51955095D02*
X196777428Y-51374523D01*
X197309619Y-51374523D02*
X196293619Y-51374523D01*
X196293619Y-50697190D02*
X196293619Y-50503666D01*
X196342000Y-50406904D01*
X196438761Y-50310142D01*
X196632285Y-50261761D01*
X196970952Y-50261761D01*
X197164476Y-50310142D01*
X197261238Y-50406904D01*
X197309619Y-50503666D01*
X197309619Y-50697190D01*
X197261238Y-50793952D01*
X197164476Y-50890714D01*
X196970952Y-50939095D01*
X196632285Y-50939095D01*
X196438761Y-50890714D01*
X196342000Y-50793952D01*
X196293619Y-50697190D01*
X197309619Y-49826333D02*
X196293619Y-49826333D01*
X197309619Y-49245761D01*
X196293619Y-49245761D01*
X196777428Y-48761952D02*
X196777428Y-48423285D01*
X197309619Y-48278142D02*
X197309619Y-48761952D01*
X196293619Y-48761952D01*
X196293619Y-48278142D01*
X197261238Y-47891095D02*
X197309619Y-47745952D01*
X197309619Y-47504047D01*
X197261238Y-47407285D01*
X197212857Y-47358904D01*
X197116095Y-47310523D01*
X197019333Y-47310523D01*
X196922571Y-47358904D01*
X196874190Y-47407285D01*
X196825809Y-47504047D01*
X196777428Y-47697571D01*
X196729047Y-47794333D01*
X196680666Y-47842714D01*
X196583904Y-47891095D01*
X196487142Y-47891095D01*
X196390380Y-47842714D01*
X196342000Y-47794333D01*
X196293619Y-47697571D01*
X196293619Y-47455666D01*
X196342000Y-47310523D01*
X180001333Y-64213619D02*
X180001333Y-64939333D01*
X179952952Y-65084476D01*
X179856190Y-65181238D01*
X179711047Y-65229619D01*
X179614285Y-65229619D01*
X180436761Y-64310380D02*
X180485142Y-64262000D01*
X180581904Y-64213619D01*
X180823809Y-64213619D01*
X180920571Y-64262000D01*
X180968952Y-64310380D01*
X181017333Y-64407142D01*
X181017333Y-64503904D01*
X180968952Y-64649047D01*
X180388380Y-65229619D01*
X181017333Y-65229619D01*
X178404761Y-75389619D02*
X178404761Y-74373619D01*
X178646666Y-74373619D01*
X178791809Y-74422000D01*
X178888571Y-74518761D01*
X178936952Y-74615523D01*
X178985333Y-74809047D01*
X178985333Y-74954190D01*
X178936952Y-75147714D01*
X178888571Y-75244476D01*
X178791809Y-75341238D01*
X178646666Y-75389619D01*
X178404761Y-75389619D01*
X180001333Y-75292857D02*
X179952952Y-75341238D01*
X179807809Y-75389619D01*
X179711047Y-75389619D01*
X179565904Y-75341238D01*
X179469142Y-75244476D01*
X179420761Y-75147714D01*
X179372380Y-74954190D01*
X179372380Y-74809047D01*
X179420761Y-74615523D01*
X179469142Y-74518761D01*
X179565904Y-74422000D01*
X179711047Y-74373619D01*
X179807809Y-74373619D01*
X179952952Y-74422000D01*
X180001333Y-74470380D01*
X181210857Y-75389619D02*
X181210857Y-74373619D01*
X181694666Y-75389619D02*
X181694666Y-74373619D01*
X182275238Y-75389619D01*
X182275238Y-74373619D01*
X109516333Y-66118619D02*
X109516333Y-66844333D01*
X109467952Y-66989476D01*
X109371190Y-67086238D01*
X109226047Y-67134619D01*
X109129285Y-67134619D01*
X109903380Y-66118619D02*
X110532333Y-66118619D01*
X110193666Y-66505666D01*
X110338809Y-66505666D01*
X110435571Y-66554047D01*
X110483952Y-66602428D01*
X110532333Y-66699190D01*
X110532333Y-66941095D01*
X110483952Y-67037857D01*
X110435571Y-67086238D01*
X110338809Y-67134619D01*
X110048523Y-67134619D01*
X109951761Y-67086238D01*
X109903380Y-67037857D01*
X111729761Y-69547619D02*
X111729761Y-68531619D01*
X112116809Y-68531619D01*
X112213571Y-68580000D01*
X112261952Y-68628380D01*
X112310333Y-68725142D01*
X112310333Y-68870285D01*
X112261952Y-68967047D01*
X112213571Y-69015428D01*
X112116809Y-69063809D01*
X111729761Y-69063809D01*
X112745761Y-69547619D02*
X112745761Y-68531619D01*
X113084428Y-68531619D02*
X113665000Y-68531619D01*
X113374714Y-69547619D02*
X113374714Y-68531619D01*
X114584238Y-69450857D02*
X114535857Y-69499238D01*
X114390714Y-69547619D01*
X114293952Y-69547619D01*
X114148809Y-69499238D01*
X114052047Y-69402476D01*
X114003666Y-69305714D01*
X113955285Y-69112190D01*
X113955285Y-68967047D01*
X114003666Y-68773523D01*
X114052047Y-68676761D01*
X114148809Y-68580000D01*
X114293952Y-68531619D01*
X114390714Y-68531619D01*
X114535857Y-68580000D01*
X114584238Y-68628380D01*
X115019666Y-69547619D02*
X115019666Y-68531619D01*
X115019666Y-69015428D02*
X115600238Y-69015428D01*
X115600238Y-69547619D02*
X115600238Y-68531619D01*
X193971333Y-57863619D02*
X193971333Y-58589333D01*
X193922952Y-58734476D01*
X193826190Y-58831238D01*
X193681047Y-58879619D01*
X193584285Y-58879619D01*
X194358380Y-57863619D02*
X195035714Y-57863619D01*
X194600285Y-58879619D01*
X197261238Y-64044285D02*
X197309619Y-63899142D01*
X197309619Y-63657238D01*
X197261238Y-63560476D01*
X197212857Y-63512095D01*
X197116095Y-63463714D01*
X197019333Y-63463714D01*
X196922571Y-63512095D01*
X196874190Y-63560476D01*
X196825809Y-63657238D01*
X196777428Y-63850761D01*
X196729047Y-63947523D01*
X196680666Y-63995904D01*
X196583904Y-64044285D01*
X196487142Y-64044285D01*
X196390380Y-63995904D01*
X196342000Y-63947523D01*
X196293619Y-63850761D01*
X196293619Y-63608857D01*
X196342000Y-63463714D01*
X197309619Y-63028285D02*
X196293619Y-63028285D01*
X196293619Y-62641238D01*
X196342000Y-62544476D01*
X196390380Y-62496095D01*
X196487142Y-62447714D01*
X196632285Y-62447714D01*
X196729047Y-62496095D01*
X196777428Y-62544476D01*
X196825809Y-62641238D01*
X196825809Y-63028285D01*
X197309619Y-62012285D02*
X196293619Y-62012285D01*
X197309619Y-61431714D02*
X196729047Y-61867142D01*
X196293619Y-61431714D02*
X196874190Y-62012285D01*
X197309619Y-60415714D02*
X196825809Y-60754380D01*
X197309619Y-60996285D02*
X196293619Y-60996285D01*
X196293619Y-60609238D01*
X196342000Y-60512476D01*
X196390380Y-60464095D01*
X196487142Y-60415714D01*
X196632285Y-60415714D01*
X196729047Y-60464095D01*
X196777428Y-60512476D01*
X196825809Y-60609238D01*
X196825809Y-60996285D01*
X173651333Y-66753619D02*
X173651333Y-67479333D01*
X173602952Y-67624476D01*
X173506190Y-67721238D01*
X173361047Y-67769619D01*
X173264285Y-67769619D01*
X174618952Y-66753619D02*
X174135142Y-66753619D01*
X174086761Y-67237428D01*
X174135142Y-67189047D01*
X174231904Y-67140666D01*
X174473809Y-67140666D01*
X174570571Y-67189047D01*
X174618952Y-67237428D01*
X174667333Y-67334190D01*
X174667333Y-67576095D01*
X174618952Y-67672857D01*
X174570571Y-67721238D01*
X174473809Y-67769619D01*
X174231904Y-67769619D01*
X174135142Y-67721238D01*
X174086761Y-67672857D01*
X172828857Y-75389619D02*
X172828857Y-74373619D01*
X173409428Y-75389619D02*
X172974000Y-74809047D01*
X173409428Y-74373619D02*
X172828857Y-74954190D01*
X173844857Y-74857428D02*
X174183523Y-74857428D01*
X174328666Y-75389619D02*
X173844857Y-75389619D01*
X173844857Y-74373619D01*
X174328666Y-74373619D01*
X174957619Y-74905809D02*
X174957619Y-75389619D01*
X174618952Y-74373619D02*
X174957619Y-74905809D01*
X175296285Y-74373619D01*
X186351333Y-66753619D02*
X186351333Y-67479333D01*
X186302952Y-67624476D01*
X186206190Y-67721238D01*
X186061047Y-67769619D01*
X185964285Y-67769619D01*
X187367333Y-67769619D02*
X186786761Y-67769619D01*
X187077047Y-67769619D02*
X187077047Y-66753619D01*
X186980285Y-66898761D01*
X186883523Y-66995523D01*
X186786761Y-67043904D01*
X185553047Y-74857428D02*
X185698190Y-74905809D01*
X185746571Y-74954190D01*
X185794952Y-75050952D01*
X185794952Y-75196095D01*
X185746571Y-75292857D01*
X185698190Y-75341238D01*
X185601428Y-75389619D01*
X185214380Y-75389619D01*
X185214380Y-74373619D01*
X185553047Y-74373619D01*
X185649809Y-74422000D01*
X185698190Y-74470380D01*
X185746571Y-74567142D01*
X185746571Y-74663904D01*
X185698190Y-74760666D01*
X185649809Y-74809047D01*
X185553047Y-74857428D01*
X185214380Y-74857428D01*
X186182000Y-75099333D02*
X186665809Y-75099333D01*
X186085238Y-75389619D02*
X186423904Y-74373619D01*
X186762571Y-75389619D01*
X186956095Y-74373619D02*
X187536666Y-74373619D01*
X187246380Y-75389619D02*
X187246380Y-74373619D01*
X187730190Y-74373619D02*
X188310761Y-74373619D01*
X188020476Y-75389619D02*
X188020476Y-74373619D01*
X179051857Y-31477857D02*
X179003476Y-31526238D01*
X178858333Y-31574619D01*
X178761571Y-31574619D01*
X178616428Y-31526238D01*
X178519666Y-31429476D01*
X178471285Y-31332714D01*
X178422904Y-31139190D01*
X178422904Y-30994047D01*
X178471285Y-30800523D01*
X178519666Y-30703761D01*
X178616428Y-30607000D01*
X178761571Y-30558619D01*
X178858333Y-30558619D01*
X179003476Y-30607000D01*
X179051857Y-30655380D01*
X180019476Y-31574619D02*
X179438904Y-31574619D01*
X179729190Y-31574619D02*
X179729190Y-30558619D01*
X179632428Y-30703761D01*
X179535666Y-30800523D01*
X179438904Y-30848904D01*
X180890333Y-30897285D02*
X180890333Y-31574619D01*
X180648428Y-30510238D02*
X180406523Y-31235952D01*
X181035476Y-31235952D01*
X133180666Y-45447857D02*
X133132285Y-45496238D01*
X132987142Y-45544619D01*
X132890380Y-45544619D01*
X132745238Y-45496238D01*
X132648476Y-45399476D01*
X132600095Y-45302714D01*
X132551714Y-45109190D01*
X132551714Y-44964047D01*
X132600095Y-44770523D01*
X132648476Y-44673761D01*
X132745238Y-44577000D01*
X132890380Y-44528619D01*
X132987142Y-44528619D01*
X133132285Y-44577000D01*
X133180666Y-44625380D01*
X133761238Y-44964047D02*
X133664476Y-44915666D01*
X133616095Y-44867285D01*
X133567714Y-44770523D01*
X133567714Y-44722142D01*
X133616095Y-44625380D01*
X133664476Y-44577000D01*
X133761238Y-44528619D01*
X133954761Y-44528619D01*
X134051523Y-44577000D01*
X134099904Y-44625380D01*
X134148285Y-44722142D01*
X134148285Y-44770523D01*
X134099904Y-44867285D01*
X134051523Y-44915666D01*
X133954761Y-44964047D01*
X133761238Y-44964047D01*
X133664476Y-45012428D01*
X133616095Y-45060809D01*
X133567714Y-45157571D01*
X133567714Y-45351095D01*
X133616095Y-45447857D01*
X133664476Y-45496238D01*
X133761238Y-45544619D01*
X133954761Y-45544619D01*
X134051523Y-45496238D01*
X134099904Y-45447857D01*
X134148285Y-45351095D01*
X134148285Y-45157571D01*
X134099904Y-45060809D01*
X134051523Y-45012428D01*
X133954761Y-44964047D01*
D15*
X154313095Y-74382380D02*
X154884523Y-74382380D01*
X154598809Y-75382380D02*
X154598809Y-74382380D01*
X155217857Y-75382380D02*
X155217857Y-74382380D01*
X155598809Y-74382380D01*
X155694047Y-74430000D01*
X155741666Y-74477619D01*
X155789285Y-74572857D01*
X155789285Y-74715714D01*
X155741666Y-74810952D01*
X155694047Y-74858571D01*
X155598809Y-74906190D01*
X155217857Y-74906190D01*
X156170238Y-74477619D02*
X156217857Y-74430000D01*
X156313095Y-74382380D01*
X156551190Y-74382380D01*
X156646428Y-74430000D01*
X156694047Y-74477619D01*
X156741666Y-74572857D01*
X156741666Y-74668095D01*
X156694047Y-74810952D01*
X156122619Y-75382380D01*
X156741666Y-75382380D01*
D10*
X170040904Y-28653619D02*
X170040904Y-29476095D01*
X170089285Y-29572857D01*
X170137666Y-29621238D01*
X170234428Y-29669619D01*
X170427952Y-29669619D01*
X170524714Y-29621238D01*
X170573095Y-29572857D01*
X170621476Y-29476095D01*
X170621476Y-28653619D01*
X171056904Y-28750380D02*
X171105285Y-28702000D01*
X171202047Y-28653619D01*
X171443952Y-28653619D01*
X171540714Y-28702000D01*
X171589095Y-28750380D01*
X171637476Y-28847142D01*
X171637476Y-28943904D01*
X171589095Y-29089047D01*
X171008523Y-29669619D01*
X171637476Y-29669619D01*
X171274619Y-37912523D02*
X171274619Y-38396333D01*
X170258619Y-38396333D01*
X171274619Y-37573857D02*
X170258619Y-37573857D01*
X170984333Y-37235190D01*
X170258619Y-36896523D01*
X171274619Y-36896523D01*
X170258619Y-36509476D02*
X170258619Y-35880523D01*
X170645666Y-36219190D01*
X170645666Y-36074047D01*
X170694047Y-35977285D01*
X170742428Y-35928904D01*
X170839190Y-35880523D01*
X171081095Y-35880523D01*
X171177857Y-35928904D01*
X171226238Y-35977285D01*
X171274619Y-36074047D01*
X171274619Y-36364333D01*
X171226238Y-36461095D01*
X171177857Y-36509476D01*
X170694047Y-35299952D02*
X170645666Y-35396714D01*
X170597285Y-35445095D01*
X170500523Y-35493476D01*
X170452142Y-35493476D01*
X170355380Y-35445095D01*
X170307000Y-35396714D01*
X170258619Y-35299952D01*
X170258619Y-35106428D01*
X170307000Y-35009666D01*
X170355380Y-34961285D01*
X170452142Y-34912904D01*
X170500523Y-34912904D01*
X170597285Y-34961285D01*
X170645666Y-35009666D01*
X170694047Y-35106428D01*
X170694047Y-35299952D01*
X170742428Y-35396714D01*
X170790809Y-35445095D01*
X170887571Y-35493476D01*
X171081095Y-35493476D01*
X171177857Y-35445095D01*
X171226238Y-35396714D01*
X171274619Y-35299952D01*
X171274619Y-35106428D01*
X171226238Y-35009666D01*
X171177857Y-34961285D01*
X171081095Y-34912904D01*
X170887571Y-34912904D01*
X170790809Y-34961285D01*
X170742428Y-35009666D01*
X170694047Y-35106428D01*
X170258619Y-34042047D02*
X170258619Y-34235571D01*
X170307000Y-34332333D01*
X170355380Y-34380714D01*
X170500523Y-34477476D01*
X170694047Y-34525857D01*
X171081095Y-34525857D01*
X171177857Y-34477476D01*
X171226238Y-34429095D01*
X171274619Y-34332333D01*
X171274619Y-34138809D01*
X171226238Y-34042047D01*
X171177857Y-33993666D01*
X171081095Y-33945285D01*
X170839190Y-33945285D01*
X170742428Y-33993666D01*
X170694047Y-34042047D01*
X170645666Y-34138809D01*
X170645666Y-34332333D01*
X170694047Y-34429095D01*
X170742428Y-34477476D01*
X170839190Y-34525857D01*
X130035904Y-28653619D02*
X130035904Y-29476095D01*
X130084285Y-29572857D01*
X130132666Y-29621238D01*
X130229428Y-29669619D01*
X130422952Y-29669619D01*
X130519714Y-29621238D01*
X130568095Y-29572857D01*
X130616476Y-29476095D01*
X130616476Y-28653619D01*
X131632476Y-29669619D02*
X131051904Y-29669619D01*
X131342190Y-29669619D02*
X131342190Y-28653619D01*
X131245428Y-28798761D01*
X131148666Y-28895523D01*
X131051904Y-28943904D01*
X130253619Y-38783380D02*
X130253619Y-38202809D01*
X131269619Y-38493095D02*
X130253619Y-38493095D01*
X131269619Y-37380333D02*
X131269619Y-37864142D01*
X130253619Y-37864142D01*
X130253619Y-37186809D02*
X131269619Y-36848142D01*
X130253619Y-36509476D01*
X130350380Y-36219190D02*
X130302000Y-36170809D01*
X130253619Y-36074047D01*
X130253619Y-35832142D01*
X130302000Y-35735380D01*
X130350380Y-35687000D01*
X130447142Y-35638619D01*
X130543904Y-35638619D01*
X130689047Y-35687000D01*
X131269619Y-36267571D01*
X131269619Y-35638619D01*
X130253619Y-35299952D02*
X130253619Y-34622619D01*
X131269619Y-35058047D01*
X130350380Y-34283952D02*
X130302000Y-34235571D01*
X130253619Y-34138809D01*
X130253619Y-33896904D01*
X130302000Y-33800142D01*
X130350380Y-33751761D01*
X130447142Y-33703380D01*
X130543904Y-33703380D01*
X130689047Y-33751761D01*
X131269619Y-34332333D01*
X131269619Y-33703380D01*
X161906857Y-32747857D02*
X161858476Y-32796238D01*
X161713333Y-32844619D01*
X161616571Y-32844619D01*
X161471428Y-32796238D01*
X161374666Y-32699476D01*
X161326285Y-32602714D01*
X161277904Y-32409190D01*
X161277904Y-32264047D01*
X161326285Y-32070523D01*
X161374666Y-31973761D01*
X161471428Y-31877000D01*
X161616571Y-31828619D01*
X161713333Y-31828619D01*
X161858476Y-31877000D01*
X161906857Y-31925380D01*
X162874476Y-32844619D02*
X162293904Y-32844619D01*
X162584190Y-32844619D02*
X162584190Y-31828619D01*
X162487428Y-31973761D01*
X162390666Y-32070523D01*
X162293904Y-32118904D01*
X163842095Y-32844619D02*
X163261523Y-32844619D01*
X163551809Y-32844619D02*
X163551809Y-31828619D01*
X163455047Y-31973761D01*
X163358285Y-32070523D01*
X163261523Y-32118904D01*
X181591857Y-47098857D02*
X181543476Y-47147238D01*
X181398333Y-47195619D01*
X181301571Y-47195619D01*
X181156428Y-47147238D01*
X181059666Y-47050476D01*
X181011285Y-46953714D01*
X180962904Y-46760190D01*
X180962904Y-46615047D01*
X181011285Y-46421523D01*
X181059666Y-46324761D01*
X181156428Y-46228000D01*
X181301571Y-46179619D01*
X181398333Y-46179619D01*
X181543476Y-46228000D01*
X181591857Y-46276380D01*
X182559476Y-47195619D02*
X181978904Y-47195619D01*
X182269190Y-47195619D02*
X182269190Y-46179619D01*
X182172428Y-46324761D01*
X182075666Y-46421523D01*
X181978904Y-46469904D01*
X183430333Y-46179619D02*
X183236809Y-46179619D01*
X183140047Y-46228000D01*
X183091666Y-46276380D01*
X182994904Y-46421523D01*
X182946523Y-46615047D01*
X182946523Y-47002095D01*
X182994904Y-47098857D01*
X183043285Y-47147238D01*
X183140047Y-47195619D01*
X183333571Y-47195619D01*
X183430333Y-47147238D01*
X183478714Y-47098857D01*
X183527095Y-47002095D01*
X183527095Y-46760190D01*
X183478714Y-46663428D01*
X183430333Y-46615047D01*
X183333571Y-46566666D01*
X183140047Y-46566666D01*
X183043285Y-46615047D01*
X182994904Y-46663428D01*
X182946523Y-46760190D01*
X180527476Y-49705380D02*
X180575857Y-49657000D01*
X180672619Y-49608619D01*
X180914523Y-49608619D01*
X181011285Y-49657000D01*
X181059666Y-49705380D01*
X181108047Y-49802142D01*
X181108047Y-49898904D01*
X181059666Y-50044047D01*
X180479095Y-50624619D01*
X181108047Y-50624619D01*
X181495095Y-49705380D02*
X181543476Y-49657000D01*
X181640238Y-49608619D01*
X181882142Y-49608619D01*
X181978904Y-49657000D01*
X182027285Y-49705380D01*
X182075666Y-49802142D01*
X182075666Y-49898904D01*
X182027285Y-50044047D01*
X181446714Y-50624619D01*
X182075666Y-50624619D01*
X182704619Y-49608619D02*
X182801380Y-49608619D01*
X182898142Y-49657000D01*
X182946523Y-49705380D01*
X182994904Y-49802142D01*
X183043285Y-49995666D01*
X183043285Y-50237571D01*
X182994904Y-50431095D01*
X182946523Y-50527857D01*
X182898142Y-50576238D01*
X182801380Y-50624619D01*
X182704619Y-50624619D01*
X182607857Y-50576238D01*
X182559476Y-50527857D01*
X182511095Y-50431095D01*
X182462714Y-50237571D01*
X182462714Y-49995666D01*
X182511095Y-49802142D01*
X182559476Y-49705380D01*
X182607857Y-49657000D01*
X182704619Y-49608619D01*
X183914142Y-49947285D02*
X183914142Y-50624619D01*
X183478714Y-49947285D02*
X183478714Y-50479476D01*
X183527095Y-50576238D01*
X183623857Y-50624619D01*
X183769000Y-50624619D01*
X183865761Y-50576238D01*
X183914142Y-50527857D01*
X120002904Y-74373619D02*
X120583476Y-74373619D01*
X120293190Y-75389619D02*
X120293190Y-74373619D01*
X120922142Y-75389619D02*
X120922142Y-74373619D01*
X121309190Y-74373619D01*
X121405952Y-74422000D01*
X121454333Y-74470380D01*
X121502714Y-74567142D01*
X121502714Y-74712285D01*
X121454333Y-74809047D01*
X121405952Y-74857428D01*
X121309190Y-74905809D01*
X120922142Y-74905809D01*
X122131666Y-74373619D02*
X122228428Y-74373619D01*
X122325190Y-74422000D01*
X122373571Y-74470380D01*
X122421952Y-74567142D01*
X122470333Y-74760666D01*
X122470333Y-75002571D01*
X122421952Y-75196095D01*
X122373571Y-75292857D01*
X122325190Y-75341238D01*
X122228428Y-75389619D01*
X122131666Y-75389619D01*
X122034904Y-75341238D01*
X121986523Y-75292857D01*
X121938142Y-75196095D01*
X121889761Y-75002571D01*
X121889761Y-74760666D01*
X121938142Y-74567142D01*
X121986523Y-74470380D01*
X122034904Y-74422000D01*
X122131666Y-74373619D01*
D15*
X163838095Y-74382380D02*
X164409523Y-74382380D01*
X164123809Y-75382380D02*
X164123809Y-74382380D01*
X164742857Y-75382380D02*
X164742857Y-74382380D01*
X165123809Y-74382380D01*
X165219047Y-74430000D01*
X165266666Y-74477619D01*
X165314285Y-74572857D01*
X165314285Y-74715714D01*
X165266666Y-74810952D01*
X165219047Y-74858571D01*
X165123809Y-74906190D01*
X164742857Y-74906190D01*
X166219047Y-74382380D02*
X165742857Y-74382380D01*
X165695238Y-74858571D01*
X165742857Y-74810952D01*
X165838095Y-74763333D01*
X166076190Y-74763333D01*
X166171428Y-74810952D01*
X166219047Y-74858571D01*
X166266666Y-74953809D01*
X166266666Y-75191904D01*
X166219047Y-75287142D01*
X166171428Y-75334761D01*
X166076190Y-75382380D01*
X165838095Y-75382380D01*
X165742857Y-75334761D01*
X165695238Y-75287142D01*
X196302380Y-39996904D02*
X196302380Y-39425476D01*
X197302380Y-39711190D02*
X196302380Y-39711190D01*
X197302380Y-39092142D02*
X196302380Y-39092142D01*
X196302380Y-38711190D01*
X196350000Y-38615952D01*
X196397619Y-38568333D01*
X196492857Y-38520714D01*
X196635714Y-38520714D01*
X196730952Y-38568333D01*
X196778571Y-38615952D01*
X196826190Y-38711190D01*
X196826190Y-39092142D01*
X196635714Y-37663571D02*
X197302380Y-37663571D01*
X196254761Y-37901666D02*
X196969047Y-38139761D01*
X196969047Y-37520714D01*
X144788095Y-74382380D02*
X145359523Y-74382380D01*
X145073809Y-75382380D02*
X145073809Y-74382380D01*
X145692857Y-75382380D02*
X145692857Y-74382380D01*
X146073809Y-74382380D01*
X146169047Y-74430000D01*
X146216666Y-74477619D01*
X146264285Y-74572857D01*
X146264285Y-74715714D01*
X146216666Y-74810952D01*
X146169047Y-74858571D01*
X146073809Y-74906190D01*
X145692857Y-74906190D01*
X146597619Y-74382380D02*
X147216666Y-74382380D01*
X146883333Y-74763333D01*
X147026190Y-74763333D01*
X147121428Y-74810952D01*
X147169047Y-74858571D01*
X147216666Y-74953809D01*
X147216666Y-75191904D01*
X147169047Y-75287142D01*
X147121428Y-75334761D01*
X147026190Y-75382380D01*
X146740476Y-75382380D01*
X146645238Y-75334761D01*
X146597619Y-75287142D01*
X135263095Y-74382380D02*
X135834523Y-74382380D01*
X135548809Y-75382380D02*
X135548809Y-74382380D01*
X136167857Y-75382380D02*
X136167857Y-74382380D01*
X136548809Y-74382380D01*
X136644047Y-74430000D01*
X136691666Y-74477619D01*
X136739285Y-74572857D01*
X136739285Y-74715714D01*
X136691666Y-74810952D01*
X136644047Y-74858571D01*
X136548809Y-74906190D01*
X136167857Y-74906190D01*
X137691666Y-75382380D02*
X137120238Y-75382380D01*
X137405952Y-75382380D02*
X137405952Y-74382380D01*
X137310714Y-74525238D01*
X137215476Y-74620476D01*
X137120238Y-74668095D01*
D10*
X154921857Y-37192857D02*
X154873476Y-37241238D01*
X154728333Y-37289619D01*
X154631571Y-37289619D01*
X154486428Y-37241238D01*
X154389666Y-37144476D01*
X154341285Y-37047714D01*
X154292904Y-36854190D01*
X154292904Y-36709047D01*
X154341285Y-36515523D01*
X154389666Y-36418761D01*
X154486428Y-36322000D01*
X154631571Y-36273619D01*
X154728333Y-36273619D01*
X154873476Y-36322000D01*
X154921857Y-36370380D01*
X155889476Y-37289619D02*
X155308904Y-37289619D01*
X155599190Y-37289619D02*
X155599190Y-36273619D01*
X155502428Y-36418761D01*
X155405666Y-36515523D01*
X155308904Y-36563904D01*
X156518428Y-36273619D02*
X156615190Y-36273619D01*
X156711952Y-36322000D01*
X156760333Y-36370380D01*
X156808714Y-36467142D01*
X156857095Y-36660666D01*
X156857095Y-36902571D01*
X156808714Y-37096095D01*
X156760333Y-37192857D01*
X156711952Y-37241238D01*
X156615190Y-37289619D01*
X156518428Y-37289619D01*
X156421666Y-37241238D01*
X156373285Y-37192857D01*
X156324904Y-37096095D01*
X156276523Y-36902571D01*
X156276523Y-36660666D01*
X156324904Y-36467142D01*
X156373285Y-36370380D01*
X156421666Y-36322000D01*
X156518428Y-36273619D01*
X181591857Y-37827857D02*
X181543476Y-37876238D01*
X181398333Y-37924619D01*
X181301571Y-37924619D01*
X181156428Y-37876238D01*
X181059666Y-37779476D01*
X181011285Y-37682714D01*
X180962904Y-37489190D01*
X180962904Y-37344047D01*
X181011285Y-37150523D01*
X181059666Y-37053761D01*
X181156428Y-36957000D01*
X181301571Y-36908619D01*
X181398333Y-36908619D01*
X181543476Y-36957000D01*
X181591857Y-37005380D01*
X182559476Y-37924619D02*
X181978904Y-37924619D01*
X182269190Y-37924619D02*
X182269190Y-36908619D01*
X182172428Y-37053761D01*
X182075666Y-37150523D01*
X181978904Y-37198904D01*
X183478714Y-36908619D02*
X182994904Y-36908619D01*
X182946523Y-37392428D01*
X182994904Y-37344047D01*
X183091666Y-37295666D01*
X183333571Y-37295666D01*
X183430333Y-37344047D01*
X183478714Y-37392428D01*
X183527095Y-37489190D01*
X183527095Y-37731095D01*
X183478714Y-37827857D01*
X183430333Y-37876238D01*
X183333571Y-37924619D01*
X183091666Y-37924619D01*
X182994904Y-37876238D01*
X182946523Y-37827857D01*
X181108047Y-39829619D02*
X180527476Y-39829619D01*
X180817761Y-39829619D02*
X180817761Y-38813619D01*
X180721000Y-38958761D01*
X180624238Y-39055523D01*
X180527476Y-39103904D01*
X181737000Y-38813619D02*
X181833761Y-38813619D01*
X181930523Y-38862000D01*
X181978904Y-38910380D01*
X182027285Y-39007142D01*
X182075666Y-39200666D01*
X182075666Y-39442571D01*
X182027285Y-39636095D01*
X181978904Y-39732857D01*
X181930523Y-39781238D01*
X181833761Y-39829619D01*
X181737000Y-39829619D01*
X181640238Y-39781238D01*
X181591857Y-39732857D01*
X181543476Y-39636095D01*
X181495095Y-39442571D01*
X181495095Y-39200666D01*
X181543476Y-39007142D01*
X181591857Y-38910380D01*
X181640238Y-38862000D01*
X181737000Y-38813619D01*
X182704619Y-38813619D02*
X182801380Y-38813619D01*
X182898142Y-38862000D01*
X182946523Y-38910380D01*
X182994904Y-39007142D01*
X183043285Y-39200666D01*
X183043285Y-39442571D01*
X182994904Y-39636095D01*
X182946523Y-39732857D01*
X182898142Y-39781238D01*
X182801380Y-39829619D01*
X182704619Y-39829619D01*
X182607857Y-39781238D01*
X182559476Y-39732857D01*
X182511095Y-39636095D01*
X182462714Y-39442571D01*
X182462714Y-39200666D01*
X182511095Y-39007142D01*
X182559476Y-38910380D01*
X182607857Y-38862000D01*
X182704619Y-38813619D01*
X183478714Y-39152285D02*
X183478714Y-39829619D01*
X183478714Y-39249047D02*
X183527095Y-39200666D01*
X183623857Y-39152285D01*
X183769000Y-39152285D01*
X183865761Y-39200666D01*
X183914142Y-39297428D01*
X183914142Y-39829619D01*
X149770666Y-52432857D02*
X149722285Y-52481238D01*
X149577142Y-52529619D01*
X149480380Y-52529619D01*
X149335238Y-52481238D01*
X149238476Y-52384476D01*
X149190095Y-52287714D01*
X149141714Y-52094190D01*
X149141714Y-51949047D01*
X149190095Y-51755523D01*
X149238476Y-51658761D01*
X149335238Y-51562000D01*
X149480380Y-51513619D01*
X149577142Y-51513619D01*
X149722285Y-51562000D01*
X149770666Y-51610380D01*
X150254476Y-52529619D02*
X150448000Y-52529619D01*
X150544761Y-52481238D01*
X150593142Y-52432857D01*
X150689904Y-52287714D01*
X150738285Y-52094190D01*
X150738285Y-51707142D01*
X150689904Y-51610380D01*
X150641523Y-51562000D01*
X150544761Y-51513619D01*
X150351238Y-51513619D01*
X150254476Y-51562000D01*
X150206095Y-51610380D01*
X150157714Y-51707142D01*
X150157714Y-51949047D01*
X150206095Y-52045809D01*
X150254476Y-52094190D01*
X150351238Y-52142571D01*
X150544761Y-52142571D01*
X150641523Y-52094190D01*
X150689904Y-52045809D01*
X150738285Y-51949047D01*
X144206857Y-52529619D02*
X143626285Y-52529619D01*
X143916571Y-52529619D02*
X143916571Y-51513619D01*
X143819809Y-51658761D01*
X143723047Y-51755523D01*
X143626285Y-51803904D01*
X145126095Y-51513619D02*
X144642285Y-51513619D01*
X144593904Y-51997428D01*
X144642285Y-51949047D01*
X144739047Y-51900666D01*
X144980952Y-51900666D01*
X145077714Y-51949047D01*
X145126095Y-51997428D01*
X145174476Y-52094190D01*
X145174476Y-52336095D01*
X145126095Y-52432857D01*
X145077714Y-52481238D01*
X144980952Y-52529619D01*
X144739047Y-52529619D01*
X144642285Y-52481238D01*
X144593904Y-52432857D01*
X145609904Y-51852285D02*
X145609904Y-52529619D01*
X145609904Y-51949047D02*
X145658285Y-51900666D01*
X145755047Y-51852285D01*
X145900190Y-51852285D01*
X145996952Y-51900666D01*
X146045333Y-51997428D01*
X146045333Y-52529619D01*
X149610666Y-42907857D02*
X149562285Y-42956238D01*
X149417142Y-43004619D01*
X149320380Y-43004619D01*
X149175238Y-42956238D01*
X149078476Y-42859476D01*
X149030095Y-42762714D01*
X148981714Y-42569190D01*
X148981714Y-42424047D01*
X149030095Y-42230523D01*
X149078476Y-42133761D01*
X149175238Y-42037000D01*
X149320380Y-41988619D01*
X149417142Y-41988619D01*
X149562285Y-42037000D01*
X149610666Y-42085380D01*
X149949333Y-41988619D02*
X150626666Y-41988619D01*
X150191238Y-43004619D01*
X143950095Y-42327285D02*
X143950095Y-43004619D01*
X143708190Y-41940238D02*
X143466285Y-42665952D01*
X144095238Y-42665952D01*
X144385523Y-41988619D02*
X145062857Y-41988619D01*
X144627428Y-43004619D01*
X145449904Y-42327285D02*
X145449904Y-43004619D01*
X145449904Y-42424047D02*
X145498285Y-42375666D01*
X145595047Y-42327285D01*
X145740190Y-42327285D01*
X145836952Y-42375666D01*
X145885333Y-42472428D01*
X145885333Y-43004619D01*
X114765666Y-53067857D02*
X114717285Y-53116238D01*
X114572142Y-53164619D01*
X114475380Y-53164619D01*
X114330238Y-53116238D01*
X114233476Y-53019476D01*
X114185095Y-52922714D01*
X114136714Y-52729190D01*
X114136714Y-52584047D01*
X114185095Y-52390523D01*
X114233476Y-52293761D01*
X114330238Y-52197000D01*
X114475380Y-52148619D01*
X114572142Y-52148619D01*
X114717285Y-52197000D01*
X114765666Y-52245380D01*
X115684904Y-52148619D02*
X115201095Y-52148619D01*
X115152714Y-52632428D01*
X115201095Y-52584047D01*
X115297857Y-52535666D01*
X115539761Y-52535666D01*
X115636523Y-52584047D01*
X115684904Y-52632428D01*
X115733285Y-52729190D01*
X115733285Y-52971095D01*
X115684904Y-53067857D01*
X115636523Y-53116238D01*
X115539761Y-53164619D01*
X115297857Y-53164619D01*
X115201095Y-53116238D01*
X115152714Y-53067857D01*
X115394619Y-57803142D02*
X115394619Y-58383714D01*
X115394619Y-58093428D02*
X114378619Y-58093428D01*
X114523761Y-58190190D01*
X114620523Y-58286952D01*
X114668904Y-58383714D01*
X114378619Y-57174190D02*
X114378619Y-57077428D01*
X114427000Y-56980666D01*
X114475380Y-56932285D01*
X114572142Y-56883904D01*
X114765666Y-56835523D01*
X115007571Y-56835523D01*
X115201095Y-56883904D01*
X115297857Y-56932285D01*
X115346238Y-56980666D01*
X115394619Y-57077428D01*
X115394619Y-57174190D01*
X115346238Y-57270952D01*
X115297857Y-57319333D01*
X115201095Y-57367714D01*
X115007571Y-57416095D01*
X114765666Y-57416095D01*
X114572142Y-57367714D01*
X114475380Y-57319333D01*
X114427000Y-57270952D01*
X114378619Y-57174190D01*
X114717285Y-56400095D02*
X115394619Y-56400095D01*
X114814047Y-56400095D02*
X114765666Y-56351714D01*
X114717285Y-56254952D01*
X114717285Y-56109809D01*
X114765666Y-56013047D01*
X114862428Y-55964666D01*
X115394619Y-55964666D01*
X110955666Y-53067857D02*
X110907285Y-53116238D01*
X110762142Y-53164619D01*
X110665380Y-53164619D01*
X110520238Y-53116238D01*
X110423476Y-53019476D01*
X110375095Y-52922714D01*
X110326714Y-52729190D01*
X110326714Y-52584047D01*
X110375095Y-52390523D01*
X110423476Y-52293761D01*
X110520238Y-52197000D01*
X110665380Y-52148619D01*
X110762142Y-52148619D01*
X110907285Y-52197000D01*
X110955666Y-52245380D01*
X111826523Y-52487285D02*
X111826523Y-53164619D01*
X111584619Y-52100238D02*
X111342714Y-52825952D01*
X111971666Y-52825952D01*
X111584619Y-57803142D02*
X111584619Y-58383714D01*
X111584619Y-58093428D02*
X110568619Y-58093428D01*
X110713761Y-58190190D01*
X110810523Y-58286952D01*
X110858904Y-58383714D01*
X110568619Y-57174190D02*
X110568619Y-57077428D01*
X110617000Y-56980666D01*
X110665380Y-56932285D01*
X110762142Y-56883904D01*
X110955666Y-56835523D01*
X111197571Y-56835523D01*
X111391095Y-56883904D01*
X111487857Y-56932285D01*
X111536238Y-56980666D01*
X111584619Y-57077428D01*
X111584619Y-57174190D01*
X111536238Y-57270952D01*
X111487857Y-57319333D01*
X111391095Y-57367714D01*
X111197571Y-57416095D01*
X110955666Y-57416095D01*
X110762142Y-57367714D01*
X110665380Y-57319333D01*
X110617000Y-57270952D01*
X110568619Y-57174190D01*
X110907285Y-56400095D02*
X111584619Y-56400095D01*
X111004047Y-56400095D02*
X110955666Y-56351714D01*
X110907285Y-56254952D01*
X110907285Y-56109809D01*
X110955666Y-56013047D01*
X111052428Y-55964666D01*
X111584619Y-55964666D01*
X114765666Y-42907857D02*
X114717285Y-42956238D01*
X114572142Y-43004619D01*
X114475380Y-43004619D01*
X114330238Y-42956238D01*
X114233476Y-42859476D01*
X114185095Y-42762714D01*
X114136714Y-42569190D01*
X114136714Y-42424047D01*
X114185095Y-42230523D01*
X114233476Y-42133761D01*
X114330238Y-42037000D01*
X114475380Y-41988619D01*
X114572142Y-41988619D01*
X114717285Y-42037000D01*
X114765666Y-42085380D01*
X115104333Y-41988619D02*
X115733285Y-41988619D01*
X115394619Y-42375666D01*
X115539761Y-42375666D01*
X115636523Y-42424047D01*
X115684904Y-42472428D01*
X115733285Y-42569190D01*
X115733285Y-42811095D01*
X115684904Y-42907857D01*
X115636523Y-42956238D01*
X115539761Y-43004619D01*
X115249476Y-43004619D01*
X115152714Y-42956238D01*
X115104333Y-42907857D01*
X115394619Y-47643142D02*
X115394619Y-48223714D01*
X115394619Y-47933428D02*
X114378619Y-47933428D01*
X114523761Y-48030190D01*
X114620523Y-48126952D01*
X114668904Y-48223714D01*
X114378619Y-47014190D02*
X114378619Y-46917428D01*
X114427000Y-46820666D01*
X114475380Y-46772285D01*
X114572142Y-46723904D01*
X114765666Y-46675523D01*
X115007571Y-46675523D01*
X115201095Y-46723904D01*
X115297857Y-46772285D01*
X115346238Y-46820666D01*
X115394619Y-46917428D01*
X115394619Y-47014190D01*
X115346238Y-47110952D01*
X115297857Y-47159333D01*
X115201095Y-47207714D01*
X115007571Y-47256095D01*
X114765666Y-47256095D01*
X114572142Y-47207714D01*
X114475380Y-47159333D01*
X114427000Y-47110952D01*
X114378619Y-47014190D01*
X114717285Y-46240095D02*
X115394619Y-46240095D01*
X114814047Y-46240095D02*
X114765666Y-46191714D01*
X114717285Y-46094952D01*
X114717285Y-45949809D01*
X114765666Y-45853047D01*
X114862428Y-45804666D01*
X115394619Y-45804666D01*
X110955666Y-42907857D02*
X110907285Y-42956238D01*
X110762142Y-43004619D01*
X110665380Y-43004619D01*
X110520238Y-42956238D01*
X110423476Y-42859476D01*
X110375095Y-42762714D01*
X110326714Y-42569190D01*
X110326714Y-42424047D01*
X110375095Y-42230523D01*
X110423476Y-42133761D01*
X110520238Y-42037000D01*
X110665380Y-41988619D01*
X110762142Y-41988619D01*
X110907285Y-42037000D01*
X110955666Y-42085380D01*
X111342714Y-42085380D02*
X111391095Y-42037000D01*
X111487857Y-41988619D01*
X111729761Y-41988619D01*
X111826523Y-42037000D01*
X111874904Y-42085380D01*
X111923285Y-42182142D01*
X111923285Y-42278904D01*
X111874904Y-42424047D01*
X111294333Y-43004619D01*
X111923285Y-43004619D01*
X111584619Y-47643142D02*
X111584619Y-48223714D01*
X111584619Y-47933428D02*
X110568619Y-47933428D01*
X110713761Y-48030190D01*
X110810523Y-48126952D01*
X110858904Y-48223714D01*
X110568619Y-47014190D02*
X110568619Y-46917428D01*
X110617000Y-46820666D01*
X110665380Y-46772285D01*
X110762142Y-46723904D01*
X110955666Y-46675523D01*
X111197571Y-46675523D01*
X111391095Y-46723904D01*
X111487857Y-46772285D01*
X111536238Y-46820666D01*
X111584619Y-46917428D01*
X111584619Y-47014190D01*
X111536238Y-47110952D01*
X111487857Y-47159333D01*
X111391095Y-47207714D01*
X111197571Y-47256095D01*
X110955666Y-47256095D01*
X110762142Y-47207714D01*
X110665380Y-47159333D01*
X110617000Y-47110952D01*
X110568619Y-47014190D01*
X110907285Y-46240095D02*
X111584619Y-46240095D01*
X111004047Y-46240095D02*
X110955666Y-46191714D01*
X110907285Y-46094952D01*
X110907285Y-45949809D01*
X110955666Y-45853047D01*
X111052428Y-45804666D01*
X111584619Y-45804666D01*
X171736536Y-42907857D02*
X171688155Y-42956238D01*
X171543012Y-43004619D01*
X171446250Y-43004619D01*
X171301107Y-42956238D01*
X171204345Y-42859476D01*
X171155964Y-42762714D01*
X171107583Y-42569190D01*
X171107583Y-42424047D01*
X171155964Y-42230523D01*
X171204345Y-42133761D01*
X171301107Y-42037000D01*
X171446250Y-41988619D01*
X171543012Y-41988619D01*
X171688155Y-42037000D01*
X171736536Y-42085380D01*
X172704155Y-43004619D02*
X172123583Y-43004619D01*
X172413869Y-43004619D02*
X172413869Y-41988619D01*
X172317107Y-42133761D01*
X172220345Y-42230523D01*
X172123583Y-42278904D01*
X173042821Y-41988619D02*
X173671774Y-41988619D01*
X173333107Y-42375666D01*
X173478250Y-42375666D01*
X173575012Y-42424047D01*
X173623393Y-42472428D01*
X173671774Y-42569190D01*
X173671774Y-42811095D01*
X173623393Y-42907857D01*
X173575012Y-42956238D01*
X173478250Y-43004619D01*
X173187964Y-43004619D01*
X173091202Y-42956238D01*
X173042821Y-42907857D01*
X131731536Y-42907857D02*
X131683155Y-42956238D01*
X131538012Y-43004619D01*
X131441250Y-43004619D01*
X131296107Y-42956238D01*
X131199345Y-42859476D01*
X131150964Y-42762714D01*
X131102583Y-42569190D01*
X131102583Y-42424047D01*
X131150964Y-42230523D01*
X131199345Y-42133761D01*
X131296107Y-42037000D01*
X131441250Y-41988619D01*
X131538012Y-41988619D01*
X131683155Y-42037000D01*
X131731536Y-42085380D01*
X132602393Y-41988619D02*
X132408869Y-41988619D01*
X132312107Y-42037000D01*
X132263726Y-42085380D01*
X132166964Y-42230523D01*
X132118583Y-42424047D01*
X132118583Y-42811095D01*
X132166964Y-42907857D01*
X132215345Y-42956238D01*
X132312107Y-43004619D01*
X132505631Y-43004619D01*
X132602393Y-42956238D01*
X132650774Y-42907857D01*
X132699155Y-42811095D01*
X132699155Y-42569190D01*
X132650774Y-42472428D01*
X132602393Y-42424047D01*
X132505631Y-42375666D01*
X132312107Y-42375666D01*
X132215345Y-42424047D01*
X132166964Y-42472428D01*
X132118583Y-42569190D01*
X141952738Y-27764619D02*
X141614071Y-27280809D01*
X141372166Y-27764619D02*
X141372166Y-26748619D01*
X141759214Y-26748619D01*
X141855976Y-26797000D01*
X141904357Y-26845380D01*
X141952738Y-26942142D01*
X141952738Y-27087285D01*
X141904357Y-27184047D01*
X141855976Y-27232428D01*
X141759214Y-27280809D01*
X141372166Y-27280809D01*
X142243023Y-26748619D02*
X142581690Y-27764619D01*
X142920357Y-26748619D01*
X143791214Y-27764619D02*
X143210642Y-27764619D01*
X143500928Y-27764619D02*
X143500928Y-26748619D01*
X143404166Y-26893761D01*
X143307404Y-26990523D01*
X143210642Y-27038904D01*
X146694071Y-26797000D02*
X146597309Y-26748619D01*
X146452166Y-26748619D01*
X146307023Y-26797000D01*
X146210261Y-26893761D01*
X146161880Y-26990523D01*
X146113500Y-27184047D01*
X146113500Y-27329190D01*
X146161880Y-27522714D01*
X146210261Y-27619476D01*
X146307023Y-27716238D01*
X146452166Y-27764619D01*
X146548928Y-27764619D01*
X146694071Y-27716238D01*
X146742452Y-27667857D01*
X146742452Y-27329190D01*
X146548928Y-27329190D01*
X147129500Y-27474333D02*
X147613309Y-27474333D01*
X147032738Y-27764619D02*
X147371404Y-26748619D01*
X147710071Y-27764619D01*
X148048738Y-27764619D02*
X148048738Y-26748619D01*
X148532547Y-27764619D02*
X148532547Y-26748619D01*
X149113119Y-27764619D01*
X149113119Y-26748619D01*
X144492738Y-30558619D02*
X143912166Y-30558619D01*
X144202452Y-30558619D02*
X144202452Y-29542619D01*
X144105690Y-29687761D01*
X144008928Y-29784523D01*
X143912166Y-29832904D01*
X145121690Y-29542619D02*
X145218452Y-29542619D01*
X145315214Y-29591000D01*
X145363595Y-29639380D01*
X145411976Y-29736142D01*
X145460357Y-29929666D01*
X145460357Y-30171571D01*
X145411976Y-30365095D01*
X145363595Y-30461857D01*
X145315214Y-30510238D01*
X145218452Y-30558619D01*
X145121690Y-30558619D01*
X145024928Y-30510238D01*
X144976547Y-30461857D01*
X144928166Y-30365095D01*
X144879785Y-30171571D01*
X144879785Y-29929666D01*
X144928166Y-29736142D01*
X144976547Y-29639380D01*
X145024928Y-29591000D01*
X145121690Y-29542619D01*
X145895785Y-30558619D02*
X145895785Y-29542619D01*
X145992547Y-30171571D02*
X146282833Y-30558619D01*
X146282833Y-29881285D02*
X145895785Y-30268333D01*
X151595666Y-39829619D02*
X151257000Y-39345809D01*
X151015095Y-39829619D02*
X151015095Y-38813619D01*
X151402142Y-38813619D01*
X151498904Y-38862000D01*
X151547285Y-38910380D01*
X151595666Y-39007142D01*
X151595666Y-39152285D01*
X151547285Y-39249047D01*
X151498904Y-39297428D01*
X151402142Y-39345809D01*
X151015095Y-39345809D01*
X152514904Y-38813619D02*
X152031095Y-38813619D01*
X151982714Y-39297428D01*
X152031095Y-39249047D01*
X152127857Y-39200666D01*
X152369761Y-39200666D01*
X152466523Y-39249047D01*
X152514904Y-39297428D01*
X152563285Y-39394190D01*
X152563285Y-39636095D01*
X152514904Y-39732857D01*
X152466523Y-39781238D01*
X152369761Y-39829619D01*
X152127857Y-39829619D01*
X152031095Y-39781238D01*
X151982714Y-39732857D01*
X144078476Y-39152285D02*
X144078476Y-39829619D01*
X143836571Y-38765238D02*
X143594666Y-39490952D01*
X144223619Y-39490952D01*
X144610666Y-39829619D02*
X144610666Y-38813619D01*
X144707428Y-39442571D02*
X144997714Y-39829619D01*
X144997714Y-39152285D02*
X144610666Y-39539333D01*
X145336380Y-38813619D02*
X146013714Y-38813619D01*
X145578285Y-39829619D01*
X181591857Y-42369619D02*
X181253190Y-41885809D01*
X181011285Y-42369619D02*
X181011285Y-41353619D01*
X181398333Y-41353619D01*
X181495095Y-41402000D01*
X181543476Y-41450380D01*
X181591857Y-41547142D01*
X181591857Y-41692285D01*
X181543476Y-41789047D01*
X181495095Y-41837428D01*
X181398333Y-41885809D01*
X181011285Y-41885809D01*
X182559476Y-42369619D02*
X181978904Y-42369619D01*
X182269190Y-42369619D02*
X182269190Y-41353619D01*
X182172428Y-41498761D01*
X182075666Y-41595523D01*
X181978904Y-41643904D01*
X183527095Y-42369619D02*
X182946523Y-42369619D01*
X183236809Y-42369619D02*
X183236809Y-41353619D01*
X183140047Y-41498761D01*
X183043285Y-41595523D01*
X182946523Y-41643904D01*
X181543476Y-44274619D02*
X180962904Y-44274619D01*
X181253190Y-44274619D02*
X181253190Y-43258619D01*
X181156428Y-43403761D01*
X181059666Y-43500523D01*
X180962904Y-43548904D01*
X182172428Y-43258619D02*
X182269190Y-43258619D01*
X182365952Y-43307000D01*
X182414333Y-43355380D01*
X182462714Y-43452142D01*
X182511095Y-43645666D01*
X182511095Y-43887571D01*
X182462714Y-44081095D01*
X182414333Y-44177857D01*
X182365952Y-44226238D01*
X182269190Y-44274619D01*
X182172428Y-44274619D01*
X182075666Y-44226238D01*
X182027285Y-44177857D01*
X181978904Y-44081095D01*
X181930523Y-43887571D01*
X181930523Y-43645666D01*
X181978904Y-43452142D01*
X182027285Y-43355380D01*
X182075666Y-43307000D01*
X182172428Y-43258619D01*
X183527095Y-44274619D02*
X183188428Y-43790809D01*
X182946523Y-44274619D02*
X182946523Y-43258619D01*
X183333571Y-43258619D01*
X183430333Y-43307000D01*
X183478714Y-43355380D01*
X183527095Y-43452142D01*
X183527095Y-43597285D01*
X183478714Y-43694047D01*
X183430333Y-43742428D01*
X183333571Y-43790809D01*
X182946523Y-43790809D01*
X156826857Y-44274619D02*
X156488190Y-43790809D01*
X156246285Y-44274619D02*
X156246285Y-43258619D01*
X156633333Y-43258619D01*
X156730095Y-43307000D01*
X156778476Y-43355380D01*
X156826857Y-43452142D01*
X156826857Y-43597285D01*
X156778476Y-43694047D01*
X156730095Y-43742428D01*
X156633333Y-43790809D01*
X156246285Y-43790809D01*
X157794476Y-44274619D02*
X157213904Y-44274619D01*
X157504190Y-44274619D02*
X157504190Y-43258619D01*
X157407428Y-43403761D01*
X157310666Y-43500523D01*
X157213904Y-43548904D01*
X158423428Y-43258619D02*
X158520190Y-43258619D01*
X158616952Y-43307000D01*
X158665333Y-43355380D01*
X158713714Y-43452142D01*
X158762095Y-43645666D01*
X158762095Y-43887571D01*
X158713714Y-44081095D01*
X158665333Y-44177857D01*
X158616952Y-44226238D01*
X158520190Y-44274619D01*
X158423428Y-44274619D01*
X158326666Y-44226238D01*
X158278285Y-44177857D01*
X158229904Y-44081095D01*
X158181523Y-43887571D01*
X158181523Y-43645666D01*
X158229904Y-43452142D01*
X158278285Y-43355380D01*
X158326666Y-43307000D01*
X158423428Y-43258619D01*
X156923619Y-52033714D02*
X156923619Y-51404761D01*
X157310666Y-51743428D01*
X157310666Y-51598285D01*
X157359047Y-51501523D01*
X157407428Y-51453142D01*
X157504190Y-51404761D01*
X157746095Y-51404761D01*
X157842857Y-51453142D01*
X157891238Y-51501523D01*
X157939619Y-51598285D01*
X157939619Y-51888571D01*
X157891238Y-51985333D01*
X157842857Y-52033714D01*
X157939619Y-50969333D02*
X156923619Y-50969333D01*
X157552571Y-50872571D02*
X157939619Y-50582285D01*
X157262285Y-50582285D02*
X157649333Y-50969333D01*
X156923619Y-50243619D02*
X156923619Y-49614666D01*
X157310666Y-49953333D01*
X157310666Y-49808190D01*
X157359047Y-49711428D01*
X157407428Y-49663047D01*
X157504190Y-49614666D01*
X157746095Y-49614666D01*
X157842857Y-49663047D01*
X157891238Y-49711428D01*
X157939619Y-49808190D01*
X157939619Y-50098476D01*
X157891238Y-50195238D01*
X157842857Y-50243619D01*
X154135666Y-44274619D02*
X153797000Y-43790809D01*
X153555095Y-44274619D02*
X153555095Y-43258619D01*
X153942142Y-43258619D01*
X154038904Y-43307000D01*
X154087285Y-43355380D01*
X154135666Y-43452142D01*
X154135666Y-43597285D01*
X154087285Y-43694047D01*
X154038904Y-43742428D01*
X153942142Y-43790809D01*
X153555095Y-43790809D01*
X154619476Y-44274619D02*
X154813000Y-44274619D01*
X154909761Y-44226238D01*
X154958142Y-44177857D01*
X155054904Y-44032714D01*
X155103285Y-43839190D01*
X155103285Y-43452142D01*
X155054904Y-43355380D01*
X155006523Y-43307000D01*
X154909761Y-43258619D01*
X154716238Y-43258619D01*
X154619476Y-43307000D01*
X154571095Y-43355380D01*
X154522714Y-43452142D01*
X154522714Y-43694047D01*
X154571095Y-43790809D01*
X154619476Y-43839190D01*
X154716238Y-43887571D01*
X154909761Y-43887571D01*
X155006523Y-43839190D01*
X155054904Y-43790809D01*
X155103285Y-43694047D01*
X153845380Y-52469142D02*
X153797000Y-52420761D01*
X153748619Y-52324000D01*
X153748619Y-52082095D01*
X153797000Y-51985333D01*
X153845380Y-51936952D01*
X153942142Y-51888571D01*
X154038904Y-51888571D01*
X154184047Y-51936952D01*
X154764619Y-52517523D01*
X154764619Y-51888571D01*
X154087285Y-51017714D02*
X154764619Y-51017714D01*
X153700238Y-51259619D02*
X154425952Y-51501523D01*
X154425952Y-50872571D01*
X154764619Y-50485523D02*
X153748619Y-50485523D01*
X154377571Y-50388761D02*
X154764619Y-50098476D01*
X154087285Y-50098476D02*
X154474333Y-50485523D01*
X154764619Y-49614666D02*
X154764619Y-49421142D01*
X154716238Y-49324380D01*
X154667857Y-49276000D01*
X154522714Y-49179238D01*
X154329190Y-49130857D01*
X153942142Y-49130857D01*
X153845380Y-49179238D01*
X153797000Y-49227619D01*
X153748619Y-49324380D01*
X153748619Y-49517904D01*
X153797000Y-49614666D01*
X153845380Y-49663047D01*
X153942142Y-49711428D01*
X154184047Y-49711428D01*
X154280809Y-49663047D01*
X154329190Y-49614666D01*
X154377571Y-49517904D01*
X154377571Y-49324380D01*
X154329190Y-49227619D01*
X154280809Y-49179238D01*
X154184047Y-49130857D01*
X151595666Y-49354619D02*
X151257000Y-48870809D01*
X151015095Y-49354619D02*
X151015095Y-48338619D01*
X151402142Y-48338619D01*
X151498904Y-48387000D01*
X151547285Y-48435380D01*
X151595666Y-48532142D01*
X151595666Y-48677285D01*
X151547285Y-48774047D01*
X151498904Y-48822428D01*
X151402142Y-48870809D01*
X151015095Y-48870809D01*
X152176238Y-48774047D02*
X152079476Y-48725666D01*
X152031095Y-48677285D01*
X151982714Y-48580523D01*
X151982714Y-48532142D01*
X152031095Y-48435380D01*
X152079476Y-48387000D01*
X152176238Y-48338619D01*
X152369761Y-48338619D01*
X152466523Y-48387000D01*
X152514904Y-48435380D01*
X152563285Y-48532142D01*
X152563285Y-48580523D01*
X152514904Y-48677285D01*
X152466523Y-48725666D01*
X152369761Y-48774047D01*
X152176238Y-48774047D01*
X152079476Y-48822428D01*
X152031095Y-48870809D01*
X151982714Y-48967571D01*
X151982714Y-49161095D01*
X152031095Y-49257857D01*
X152079476Y-49306238D01*
X152176238Y-49354619D01*
X152369761Y-49354619D01*
X152466523Y-49306238D01*
X152514904Y-49257857D01*
X152563285Y-49161095D01*
X152563285Y-48967571D01*
X152514904Y-48870809D01*
X152466523Y-48822428D01*
X152369761Y-48774047D01*
X143594666Y-49354619D02*
X143014095Y-49354619D01*
X143304380Y-49354619D02*
X143304380Y-48338619D01*
X143207619Y-48483761D01*
X143110857Y-48580523D01*
X143014095Y-48628904D01*
X144223619Y-48338619D02*
X144320380Y-48338619D01*
X144417142Y-48387000D01*
X144465523Y-48435380D01*
X144513904Y-48532142D01*
X144562285Y-48725666D01*
X144562285Y-48967571D01*
X144513904Y-49161095D01*
X144465523Y-49257857D01*
X144417142Y-49306238D01*
X144320380Y-49354619D01*
X144223619Y-49354619D01*
X144126857Y-49306238D01*
X144078476Y-49257857D01*
X144030095Y-49161095D01*
X143981714Y-48967571D01*
X143981714Y-48725666D01*
X144030095Y-48532142D01*
X144078476Y-48435380D01*
X144126857Y-48387000D01*
X144223619Y-48338619D01*
X145191238Y-48338619D02*
X145288000Y-48338619D01*
X145384761Y-48387000D01*
X145433142Y-48435380D01*
X145481523Y-48532142D01*
X145529904Y-48725666D01*
X145529904Y-48967571D01*
X145481523Y-49161095D01*
X145433142Y-49257857D01*
X145384761Y-49306238D01*
X145288000Y-49354619D01*
X145191238Y-49354619D01*
X145094476Y-49306238D01*
X145046095Y-49257857D01*
X144997714Y-49161095D01*
X144949333Y-48967571D01*
X144949333Y-48725666D01*
X144997714Y-48532142D01*
X145046095Y-48435380D01*
X145094476Y-48387000D01*
X145191238Y-48338619D01*
X146545904Y-49354619D02*
X146207238Y-48870809D01*
X145965333Y-49354619D02*
X145965333Y-48338619D01*
X146352380Y-48338619D01*
X146449142Y-48387000D01*
X146497523Y-48435380D01*
X146545904Y-48532142D01*
X146545904Y-48677285D01*
X146497523Y-48774047D01*
X146449142Y-48822428D01*
X146352380Y-48870809D01*
X145965333Y-48870809D01*
X128735666Y-48465619D02*
X128397000Y-47981809D01*
X128155095Y-48465619D02*
X128155095Y-47449619D01*
X128542142Y-47449619D01*
X128638904Y-47498000D01*
X128687285Y-47546380D01*
X128735666Y-47643142D01*
X128735666Y-47788285D01*
X128687285Y-47885047D01*
X128638904Y-47933428D01*
X128542142Y-47981809D01*
X128155095Y-47981809D01*
X129074333Y-47449619D02*
X129751666Y-47449619D01*
X129316238Y-48465619D01*
X130205238Y-50624619D02*
X129624666Y-50624619D01*
X129914952Y-50624619D02*
X129914952Y-49608619D01*
X129818190Y-49753761D01*
X129721428Y-49850523D01*
X129624666Y-49898904D01*
X130834190Y-49608619D02*
X130930952Y-49608619D01*
X131027714Y-49657000D01*
X131076095Y-49705380D01*
X131124476Y-49802142D01*
X131172857Y-49995666D01*
X131172857Y-50237571D01*
X131124476Y-50431095D01*
X131076095Y-50527857D01*
X131027714Y-50576238D01*
X130930952Y-50624619D01*
X130834190Y-50624619D01*
X130737428Y-50576238D01*
X130689047Y-50527857D01*
X130640666Y-50431095D01*
X130592285Y-50237571D01*
X130592285Y-49995666D01*
X130640666Y-49802142D01*
X130689047Y-49705380D01*
X130737428Y-49657000D01*
X130834190Y-49608619D01*
X131608285Y-50624619D02*
X131608285Y-49608619D01*
X131705047Y-50237571D02*
X131995333Y-50624619D01*
X131995333Y-49947285D02*
X131608285Y-50334333D01*
X130640666Y-56085619D02*
X130302000Y-55601809D01*
X130060095Y-56085619D02*
X130060095Y-55069619D01*
X130447142Y-55069619D01*
X130543904Y-55118000D01*
X130592285Y-55166380D01*
X130640666Y-55263142D01*
X130640666Y-55408285D01*
X130592285Y-55505047D01*
X130543904Y-55553428D01*
X130447142Y-55601809D01*
X130060095Y-55601809D01*
X131511523Y-55069619D02*
X131318000Y-55069619D01*
X131221238Y-55118000D01*
X131172857Y-55166380D01*
X131076095Y-55311523D01*
X131027714Y-55505047D01*
X131027714Y-55892095D01*
X131076095Y-55988857D01*
X131124476Y-56037238D01*
X131221238Y-56085619D01*
X131414761Y-56085619D01*
X131511523Y-56037238D01*
X131559904Y-55988857D01*
X131608285Y-55892095D01*
X131608285Y-55650190D01*
X131559904Y-55553428D01*
X131511523Y-55505047D01*
X131414761Y-55456666D01*
X131221238Y-55456666D01*
X131124476Y-55505047D01*
X131076095Y-55553428D01*
X131027714Y-55650190D01*
X130205238Y-53799619D02*
X129624666Y-53799619D01*
X129914952Y-53799619D02*
X129914952Y-52783619D01*
X129818190Y-52928761D01*
X129721428Y-53025523D01*
X129624666Y-53073904D01*
X130834190Y-52783619D02*
X130930952Y-52783619D01*
X131027714Y-52832000D01*
X131076095Y-52880380D01*
X131124476Y-52977142D01*
X131172857Y-53170666D01*
X131172857Y-53412571D01*
X131124476Y-53606095D01*
X131076095Y-53702857D01*
X131027714Y-53751238D01*
X130930952Y-53799619D01*
X130834190Y-53799619D01*
X130737428Y-53751238D01*
X130689047Y-53702857D01*
X130640666Y-53606095D01*
X130592285Y-53412571D01*
X130592285Y-53170666D01*
X130640666Y-52977142D01*
X130689047Y-52880380D01*
X130737428Y-52832000D01*
X130834190Y-52783619D01*
X131608285Y-53799619D02*
X131608285Y-52783619D01*
X131705047Y-53412571D02*
X131995333Y-53799619D01*
X131995333Y-53122285D02*
X131608285Y-53509333D01*
X151595666Y-46179619D02*
X151257000Y-45695809D01*
X151015095Y-46179619D02*
X151015095Y-45163619D01*
X151402142Y-45163619D01*
X151498904Y-45212000D01*
X151547285Y-45260380D01*
X151595666Y-45357142D01*
X151595666Y-45502285D01*
X151547285Y-45599047D01*
X151498904Y-45647428D01*
X151402142Y-45695809D01*
X151015095Y-45695809D01*
X152466523Y-45502285D02*
X152466523Y-46179619D01*
X152224619Y-45115238D02*
X151982714Y-45840952D01*
X152611666Y-45840952D01*
X143497904Y-45502285D02*
X143497904Y-46179619D01*
X143256000Y-45115238D02*
X143014095Y-45840952D01*
X143643047Y-45840952D01*
X144078476Y-46179619D02*
X144272000Y-46179619D01*
X144368761Y-46131238D01*
X144417142Y-46082857D01*
X144513904Y-45937714D01*
X144562285Y-45744190D01*
X144562285Y-45357142D01*
X144513904Y-45260380D01*
X144465523Y-45212000D01*
X144368761Y-45163619D01*
X144175238Y-45163619D01*
X144078476Y-45212000D01*
X144030095Y-45260380D01*
X143981714Y-45357142D01*
X143981714Y-45599047D01*
X144030095Y-45695809D01*
X144078476Y-45744190D01*
X144175238Y-45792571D01*
X144368761Y-45792571D01*
X144465523Y-45744190D01*
X144513904Y-45695809D01*
X144562285Y-45599047D01*
X145578285Y-46179619D02*
X145239619Y-45695809D01*
X144997714Y-46179619D02*
X144997714Y-45163619D01*
X145384761Y-45163619D01*
X145481523Y-45212000D01*
X145529904Y-45260380D01*
X145578285Y-45357142D01*
X145578285Y-45502285D01*
X145529904Y-45599047D01*
X145481523Y-45647428D01*
X145384761Y-45695809D01*
X144997714Y-45695809D01*
X146062095Y-46179619D02*
X146255619Y-46179619D01*
X146352380Y-46131238D01*
X146400761Y-46082857D01*
X146497523Y-45937714D01*
X146545904Y-45744190D01*
X146545904Y-45357142D01*
X146497523Y-45260380D01*
X146449142Y-45212000D01*
X146352380Y-45163619D01*
X146158857Y-45163619D01*
X146062095Y-45212000D01*
X146013714Y-45260380D01*
X145965333Y-45357142D01*
X145965333Y-45599047D01*
X146013714Y-45695809D01*
X146062095Y-45744190D01*
X146158857Y-45792571D01*
X146352380Y-45792571D01*
X146449142Y-45744190D01*
X146497523Y-45695809D01*
X146545904Y-45599047D01*
X117940666Y-43004619D02*
X117602000Y-42520809D01*
X117360095Y-43004619D02*
X117360095Y-41988619D01*
X117747142Y-41988619D01*
X117843904Y-42037000D01*
X117892285Y-42085380D01*
X117940666Y-42182142D01*
X117940666Y-42327285D01*
X117892285Y-42424047D01*
X117843904Y-42472428D01*
X117747142Y-42520809D01*
X117360095Y-42520809D01*
X118279333Y-41988619D02*
X118908285Y-41988619D01*
X118569619Y-42375666D01*
X118714761Y-42375666D01*
X118811523Y-42424047D01*
X118859904Y-42472428D01*
X118908285Y-42569190D01*
X118908285Y-42811095D01*
X118859904Y-42907857D01*
X118811523Y-42956238D01*
X118714761Y-43004619D01*
X118424476Y-43004619D01*
X118327714Y-42956238D01*
X118279333Y-42907857D01*
X117553619Y-50763714D02*
X117553619Y-50134761D01*
X117940666Y-50473428D01*
X117940666Y-50328285D01*
X117989047Y-50231523D01*
X118037428Y-50183142D01*
X118134190Y-50134761D01*
X118376095Y-50134761D01*
X118472857Y-50183142D01*
X118521238Y-50231523D01*
X118569619Y-50328285D01*
X118569619Y-50618571D01*
X118521238Y-50715333D01*
X118472857Y-50763714D01*
X117553619Y-49796095D02*
X117553619Y-49167142D01*
X117940666Y-49505809D01*
X117940666Y-49360666D01*
X117989047Y-49263904D01*
X118037428Y-49215523D01*
X118134190Y-49167142D01*
X118376095Y-49167142D01*
X118472857Y-49215523D01*
X118521238Y-49263904D01*
X118569619Y-49360666D01*
X118569619Y-49650952D01*
X118521238Y-49747714D01*
X118472857Y-49796095D01*
X118569619Y-48731714D02*
X117553619Y-48731714D01*
X118182571Y-48634952D02*
X118569619Y-48344666D01*
X117892285Y-48344666D02*
X118279333Y-48731714D01*
X107780666Y-43004619D02*
X107442000Y-42520809D01*
X107200095Y-43004619D02*
X107200095Y-41988619D01*
X107587142Y-41988619D01*
X107683904Y-42037000D01*
X107732285Y-42085380D01*
X107780666Y-42182142D01*
X107780666Y-42327285D01*
X107732285Y-42424047D01*
X107683904Y-42472428D01*
X107587142Y-42520809D01*
X107200095Y-42520809D01*
X108167714Y-42085380D02*
X108216095Y-42037000D01*
X108312857Y-41988619D01*
X108554761Y-41988619D01*
X108651523Y-42037000D01*
X108699904Y-42085380D01*
X108748285Y-42182142D01*
X108748285Y-42278904D01*
X108699904Y-42424047D01*
X108119333Y-43004619D01*
X108748285Y-43004619D01*
X107393619Y-50763714D02*
X107393619Y-50134761D01*
X107780666Y-50473428D01*
X107780666Y-50328285D01*
X107829047Y-50231523D01*
X107877428Y-50183142D01*
X107974190Y-50134761D01*
X108216095Y-50134761D01*
X108312857Y-50183142D01*
X108361238Y-50231523D01*
X108409619Y-50328285D01*
X108409619Y-50618571D01*
X108361238Y-50715333D01*
X108312857Y-50763714D01*
X107393619Y-49796095D02*
X107393619Y-49167142D01*
X107780666Y-49505809D01*
X107780666Y-49360666D01*
X107829047Y-49263904D01*
X107877428Y-49215523D01*
X107974190Y-49167142D01*
X108216095Y-49167142D01*
X108312857Y-49215523D01*
X108361238Y-49263904D01*
X108409619Y-49360666D01*
X108409619Y-49650952D01*
X108361238Y-49747714D01*
X108312857Y-49796095D01*
X108409619Y-48731714D02*
X107393619Y-48731714D01*
X108022571Y-48634952D02*
X108409619Y-48344666D01*
X107732285Y-48344666D02*
X108119333Y-48731714D01*
X116670666Y-30177619D02*
X116332000Y-29693809D01*
X116090095Y-30177619D02*
X116090095Y-29161619D01*
X116477142Y-29161619D01*
X116573904Y-29210000D01*
X116622285Y-29258380D01*
X116670666Y-29355142D01*
X116670666Y-29500285D01*
X116622285Y-29597047D01*
X116573904Y-29645428D01*
X116477142Y-29693809D01*
X116090095Y-29693809D01*
X117638285Y-30177619D02*
X117057714Y-30177619D01*
X117348000Y-30177619D02*
X117348000Y-29161619D01*
X117251238Y-29306761D01*
X117154476Y-29403523D01*
X117057714Y-29451904D01*
X115751428Y-32209619D02*
X115170857Y-32209619D01*
X115461142Y-32209619D02*
X115461142Y-31193619D01*
X115364380Y-31338761D01*
X115267619Y-31435523D01*
X115170857Y-31483904D01*
X116380380Y-31193619D02*
X116477142Y-31193619D01*
X116573904Y-31242000D01*
X116622285Y-31290380D01*
X116670666Y-31387142D01*
X116719047Y-31580666D01*
X116719047Y-31822571D01*
X116670666Y-32016095D01*
X116622285Y-32112857D01*
X116573904Y-32161238D01*
X116477142Y-32209619D01*
X116380380Y-32209619D01*
X116283619Y-32161238D01*
X116235238Y-32112857D01*
X116186857Y-32016095D01*
X116138476Y-31822571D01*
X116138476Y-31580666D01*
X116186857Y-31387142D01*
X116235238Y-31290380D01*
X116283619Y-31242000D01*
X116380380Y-31193619D01*
X117348000Y-31193619D02*
X117444761Y-31193619D01*
X117541523Y-31242000D01*
X117589904Y-31290380D01*
X117638285Y-31387142D01*
X117686666Y-31580666D01*
X117686666Y-31822571D01*
X117638285Y-32016095D01*
X117589904Y-32112857D01*
X117541523Y-32161238D01*
X117444761Y-32209619D01*
X117348000Y-32209619D01*
X117251238Y-32161238D01*
X117202857Y-32112857D01*
X117154476Y-32016095D01*
X117106095Y-31822571D01*
X117106095Y-31580666D01*
X117154476Y-31387142D01*
X117202857Y-31290380D01*
X117251238Y-31242000D01*
X117348000Y-31193619D01*
X118122095Y-32209619D02*
X118122095Y-31193619D01*
X118218857Y-31822571D02*
X118509142Y-32209619D01*
X118509142Y-31532285D02*
X118122095Y-31919333D01*
D15*
X136993333Y-55983142D02*
X136945714Y-56030761D01*
X136802857Y-56078380D01*
X136707619Y-56078380D01*
X136564761Y-56030761D01*
X136469523Y-55935523D01*
X136421904Y-55840285D01*
X136374285Y-55649809D01*
X136374285Y-55506952D01*
X136421904Y-55316476D01*
X136469523Y-55221238D01*
X136564761Y-55126000D01*
X136707619Y-55078380D01*
X136802857Y-55078380D01*
X136945714Y-55126000D01*
X136993333Y-55173619D01*
X137945714Y-56078380D02*
X137374285Y-56078380D01*
X137660000Y-56078380D02*
X137660000Y-55078380D01*
X137564761Y-55221238D01*
X137469523Y-55316476D01*
X137374285Y-55364095D01*
D10*
X136331476Y-57579380D02*
X136379857Y-57531000D01*
X136476619Y-57482619D01*
X136718523Y-57482619D01*
X136815285Y-57531000D01*
X136863666Y-57579380D01*
X136912047Y-57676142D01*
X136912047Y-57772904D01*
X136863666Y-57918047D01*
X136283095Y-58498619D01*
X136912047Y-58498619D01*
X137299095Y-57579380D02*
X137347476Y-57531000D01*
X137444238Y-57482619D01*
X137686142Y-57482619D01*
X137782904Y-57531000D01*
X137831285Y-57579380D01*
X137879666Y-57676142D01*
X137879666Y-57772904D01*
X137831285Y-57918047D01*
X137250714Y-58498619D01*
X137879666Y-58498619D01*
X138508619Y-57482619D02*
X138605380Y-57482619D01*
X138702142Y-57531000D01*
X138750523Y-57579380D01*
X138798904Y-57676142D01*
X138847285Y-57869666D01*
X138847285Y-58111571D01*
X138798904Y-58305095D01*
X138750523Y-58401857D01*
X138702142Y-58450238D01*
X138605380Y-58498619D01*
X138508619Y-58498619D01*
X138411857Y-58450238D01*
X138363476Y-58401857D01*
X138315095Y-58305095D01*
X138266714Y-58111571D01*
X138266714Y-57869666D01*
X138315095Y-57676142D01*
X138363476Y-57579380D01*
X138411857Y-57531000D01*
X138508619Y-57482619D01*
X139718142Y-57821285D02*
X139718142Y-58498619D01*
X139282714Y-57821285D02*
X139282714Y-58353476D01*
X139331095Y-58450238D01*
X139427857Y-58498619D01*
X139573000Y-58498619D01*
X139669761Y-58450238D01*
X139718142Y-58401857D01*
D15*
X164965142Y-45823142D02*
X164917523Y-45870761D01*
X164774666Y-45918380D01*
X164679428Y-45918380D01*
X164536571Y-45870761D01*
X164441333Y-45775523D01*
X164393714Y-45680285D01*
X164346095Y-45489809D01*
X164346095Y-45346952D01*
X164393714Y-45156476D01*
X164441333Y-45061238D01*
X164536571Y-44966000D01*
X164679428Y-44918380D01*
X164774666Y-44918380D01*
X164917523Y-44966000D01*
X164965142Y-45013619D01*
X165917523Y-45918380D02*
X165346095Y-45918380D01*
X165631809Y-45918380D02*
X165631809Y-44918380D01*
X165536571Y-45061238D01*
X165441333Y-45156476D01*
X165346095Y-45204095D01*
X166298476Y-45013619D02*
X166346095Y-44966000D01*
X166441333Y-44918380D01*
X166679428Y-44918380D01*
X166774666Y-44966000D01*
X166822285Y-45013619D01*
X166869904Y-45108857D01*
X166869904Y-45204095D01*
X166822285Y-45346952D01*
X166250857Y-45918380D01*
X166869904Y-45918380D01*
D10*
X164906476Y-47419380D02*
X164954857Y-47371000D01*
X165051619Y-47322619D01*
X165293523Y-47322619D01*
X165390285Y-47371000D01*
X165438666Y-47419380D01*
X165487047Y-47516142D01*
X165487047Y-47612904D01*
X165438666Y-47758047D01*
X164858095Y-48338619D01*
X165487047Y-48338619D01*
X165874095Y-47419380D02*
X165922476Y-47371000D01*
X166019238Y-47322619D01*
X166261142Y-47322619D01*
X166357904Y-47371000D01*
X166406285Y-47419380D01*
X166454666Y-47516142D01*
X166454666Y-47612904D01*
X166406285Y-47758047D01*
X165825714Y-48338619D01*
X166454666Y-48338619D01*
X167083619Y-47322619D02*
X167180380Y-47322619D01*
X167277142Y-47371000D01*
X167325523Y-47419380D01*
X167373904Y-47516142D01*
X167422285Y-47709666D01*
X167422285Y-47951571D01*
X167373904Y-48145095D01*
X167325523Y-48241857D01*
X167277142Y-48290238D01*
X167180380Y-48338619D01*
X167083619Y-48338619D01*
X166986857Y-48290238D01*
X166938476Y-48241857D01*
X166890095Y-48145095D01*
X166841714Y-47951571D01*
X166841714Y-47709666D01*
X166890095Y-47516142D01*
X166938476Y-47419380D01*
X166986857Y-47371000D01*
X167083619Y-47322619D01*
X168293142Y-47661285D02*
X168293142Y-48338619D01*
X167857714Y-47661285D02*
X167857714Y-48193476D01*
X167906095Y-48290238D01*
X168002857Y-48338619D01*
X168148000Y-48338619D01*
X168244761Y-48290238D01*
X168293142Y-48241857D01*
X156748238Y-28496380D02*
X156651476Y-28448000D01*
X156554714Y-28351238D01*
X156409571Y-28206095D01*
X156312809Y-28157714D01*
X156216047Y-28157714D01*
X156264428Y-28399619D02*
X156167666Y-28351238D01*
X156070904Y-28254476D01*
X156022523Y-28060952D01*
X156022523Y-27722285D01*
X156070904Y-27528761D01*
X156167666Y-27432000D01*
X156264428Y-27383619D01*
X156457952Y-27383619D01*
X156554714Y-27432000D01*
X156651476Y-27528761D01*
X156699857Y-27722285D01*
X156699857Y-28060952D01*
X156651476Y-28254476D01*
X156554714Y-28351238D01*
X156457952Y-28399619D01*
X156264428Y-28399619D01*
X157086904Y-27480380D02*
X157135285Y-27432000D01*
X157232047Y-27383619D01*
X157473952Y-27383619D01*
X157570714Y-27432000D01*
X157619095Y-27480380D01*
X157667476Y-27577142D01*
X157667476Y-27673904D01*
X157619095Y-27819047D01*
X157038523Y-28399619D01*
X157667476Y-28399619D01*
X111663238Y-35625680D02*
X111566476Y-35577300D01*
X111469714Y-35480538D01*
X111324571Y-35335395D01*
X111227809Y-35287014D01*
X111131047Y-35287014D01*
X111179428Y-35528919D02*
X111082666Y-35480538D01*
X110985904Y-35383776D01*
X110937523Y-35190252D01*
X110937523Y-34851585D01*
X110985904Y-34658061D01*
X111082666Y-34561300D01*
X111179428Y-34512919D01*
X111372952Y-34512919D01*
X111469714Y-34561300D01*
X111566476Y-34658061D01*
X111614857Y-34851585D01*
X111614857Y-35190252D01*
X111566476Y-35383776D01*
X111469714Y-35480538D01*
X111372952Y-35528919D01*
X111179428Y-35528919D01*
X112582476Y-35528919D02*
X112001904Y-35528919D01*
X112292190Y-35528919D02*
X112292190Y-34512919D01*
X112195428Y-34658061D01*
X112098666Y-34754823D01*
X112001904Y-34803204D01*
M02*
