M48
; DRILL file {KiCad (5.1.6)-1} date 09/02/20 07:34:19
; FORMAT={-:-/ absolute / inch / decimal}
; #@! TF.CreationDate,2020-09-02T07:34:19-04:00
; #@! TF.GenerationSoftware,Kicad,Pcbnew,(5.1.6)-1
; #@! TF.FileFunction,Plated,1,2,PTH
FMAT,2
INCH
T1C0.0300
T2C0.0380
T3C0.0420
%
G90
G05
T1
X6.975Y-1.725
X7.375Y-1.725
X4.95Y-2.1
X5.35Y-2.1
X6.075Y-1.8
X6.075Y-2.2
X6.075Y-1.55
X6.175Y-1.55
X5.5Y-1.55
X5.9Y-1.55
X5.0Y-1.675
X5.1Y-1.675
X4.65Y-1.75
X4.65Y-2.15
X5.2Y-1.85
X5.3Y-1.85
X5.6Y-2.05
X5.8Y-2.05
X5.5Y-1.925
X5.9Y-1.925
X4.95Y-1.975
X5.35Y-1.975
X7.075Y-1.3
X7.075Y-1.4
X5.6Y-1.675
X5.8Y-1.675
X4.3Y-1.525
X4.4Y-1.525
X4.5Y-1.525
X5.0Y-1.25
X5.0Y-1.35
X5.0Y-1.45
X5.0Y-1.55
X5.3Y-1.25
X5.3Y-1.35
X5.3Y-1.45
X5.3Y-1.55
X4.375Y-1.75
X4.375Y-1.95
X6.075Y-1.25
X6.175Y-1.25
X6.275Y-1.25
X4.525Y-1.75
X4.525Y-1.95
X4.525Y-2.15
X4.525Y-2.35
X6.575Y-1.25
X6.575Y-1.35
X6.575Y-1.45
X6.575Y-1.55
X6.875Y-1.25
X6.875Y-1.35
X6.875Y-1.45
X6.875Y-1.55
X5.5Y-1.8
X5.9Y-1.8
X6.575Y-1.675
X6.675Y-1.675
X6.475Y-1.95
X6.575Y-1.95
X4.375Y-2.15
X4.375Y-2.35
X6.2Y-1.8
X6.2Y-2.2
X4.4Y-1.25
X4.8Y-1.25
X4.25Y-1.75
X4.25Y-2.15
X5.35Y-2.35
X5.45Y-2.35
X6.4Y-1.35
X6.4Y-1.45
X7.075Y-1.55
X7.275Y-1.55
X7.075Y-2.075
X7.275Y-2.075
T2
X5.6125Y-1.25
X5.7125Y-1.35
X5.8125Y-1.25
T3
X6.85Y-2.75
X6.85Y-2.85
X7.65Y-1.875
X7.65Y-1.975
X7.65Y-2.075
X4.425Y-2.85
X5.125Y-2.85
X4.85Y-2.625
X4.95Y-2.625
X5.05Y-2.625
X7.65Y-1.525
X5.75Y-2.85
X7.65Y-2.4
X7.65Y-2.5
X6.125Y-2.85
X7.35Y-2.75
X7.35Y-2.85
X4.425Y-2.625
X4.525Y-2.625
X7.1Y-2.65
X7.1Y-2.75
X7.1Y-2.85
X6.5Y-2.85
X5.375Y-2.85
T0
M30
